<svg id="图层_1" data-name="图层 1" xmlns="http://www.w3.org/2000/svg" viewBox="0 0 113.39 113.39"><defs><style>.cls-1{fill:#bec9d7;}</style></defs><title>省份管理</title><path class="cls-1" d="M83,92.54a1,1,0,0,0-.42-.41h-.17a.32.32,0,0,0-.25.08L79,93.71a.47.47,0,0,0-.25.42v.16c0,.17,0,.25.09.34l.33.66a.66.66,0,0,0,.67.42l3.92-.17c.41,0,.58-.5.41-.91L83,92.54ZM66.61,97.3H63a.57.57,0,0,0-.58.58v1.83a.57.57,0,0,0,.58.59h.17l3.58-1.17a.62.62,0,0,0,.42-.58V98A.59.59,0,0,0,66.61,97.3Zm33.1-63a1.19,1.19,0,0,0,.09-.59,1.59,1.59,0,0,0-1.59-1.58H94.79a1.59,1.59,0,0,1-1.08-.42l-6.84-6.84a1.56,1.56,0,0,0-1.08-.41.79.79,0,0,0-.42.08l-4.75,1.17a1.61,1.61,0,0,0-1.08,1l-3.75,8.75a1.47,1.47,0,0,0-.17.59,1.61,1.61,0,0,0,1.08,1.5A1.57,1.57,0,0,1,77,40.35L59.86,50.86a1.45,1.45,0,0,1-.83.25,1,1,0,0,1-.5-.09L45.19,46.6a1.89,1.89,0,0,1-.67-.41l-7.09-5.67a1.53,1.53,0,0,1-.58-1L35.77,34a1.52,1.52,0,0,0-1.5-1.25,1.08,1.08,0,0,0-.5.08L21.93,36.68a1.46,1.46,0,0,0-1,1.17l-1.09,4.42a1.62,1.62,0,0,1-1.33,1.17L9.75,44.69a1.52,1.52,0,0,0-1.33,1.5v3.08a1.5,1.5,0,0,0,.17.67l2.83,5.67a1.5,1.5,0,0,1,.17.67v6.83a1.41,1.41,0,0,0,.5,1.17L23.84,74.53a1.55,1.55,0,0,0,1,.42h6.92a1.39,1.39,0,0,1,.84.25l3.83,2.59a1.7,1.7,0,0,0,.84.25h.33L43,77h.33a1.59,1.59,0,0,1,1.59,1.59v3.83a1.6,1.6,0,0,1-.42,1.09l-.17.16a1.59,1.59,0,0,0-.41,1.09,2,2,0,0,0,.33,1L49,91.63a1.64,1.64,0,0,0,1.25.58,1.32,1.32,0,0,0,.59-.08l6.25-2.51a1.27,1.27,0,0,1,.58-.08,1.5,1.5,0,0,1,.67.17l8.25,4.08a1.5,1.5,0,0,0,.67.17,1.84,1.84,0,0,0,.67-.17L81,88a1.55,1.55,0,0,0,.83-.92l5.75-11.42a1.5,1.5,0,0,0,.17-.67,1.43,1.43,0,0,0-.08-.58L83.46,63a1.19,1.19,0,0,1-.09-.59,1.56,1.56,0,0,1,.17-.66l.75-1.59a1.65,1.65,0,0,0,.17-.67A1.59,1.59,0,0,0,84,58.36l-2.67-2.75A1.59,1.59,0,0,1,81,54.53a1.79,1.79,0,0,1,.59-1.26l3.83-2.91a1.75,1.75,0,0,1,.92-.34,1.57,1.57,0,0,1,1.08.42l1.09,1.08a1.57,1.57,0,0,0,1.08.42,1.6,1.6,0,0,0,1.09-.42l7.67-7.67a1.56,1.56,0,0,0,.41-1.08,1.65,1.65,0,0,0-.16-.67l-.75-1.5a1.43,1.43,0,0,1-.17-.66,1.51,1.51,0,0,1,.08-.59l2-5.08ZM62.36,68.62,58.11,71.7l1.58,5.09V77a.75.75,0,0,1-.75.75.64.64,0,0,1-.41-.17l-4.34-3.09-4.33,3.09a.67.67,0,0,1-.42.17.75.75,0,0,1-.75-.75v-.25l1.58-5.09L46,68.53a.74.74,0,0,1-.25-.58.73.73,0,0,1,.67-.75h5.33l1.67-5a.72.72,0,0,1,.67-.5.64.64,0,0,1,.67.5l1.66,5h5.34a.68.68,0,0,1,.67.75A.5.5,0,0,1,62.36,68.62Zm4.5-10,2.09.25L69.78,57c.09-.09.17-.17.25-.17a.22.22,0,0,1,.25.25l.42,2,2,.25a.27.27,0,0,1,.25.25c0,.08-.08.17-.17.25l-1.75,1,.42,2V63a.22.22,0,0,1-.25.25c-.08,0-.17,0-.17-.09L69.45,61.7l-1.75,1h-.17a.22.22,0,0,1-.25-.25v-.09l.83-1.83L66.7,59c-.09-.09-.09-.09-.09-.17a.22.22,0,0,1,.25-.25Zm5.67,23-1.91.67v2a.22.22,0,0,1-.25.25c-.09,0-.17-.08-.25-.08l-1.25-1.67L67,83.37h-.09a.22.22,0,0,1-.25-.25c0-.08,0-.08.09-.16l1.16-1.67L66.7,79.62c0-.08-.09-.08-.09-.17a.23.23,0,0,1,.25-.25H67l1.92.59L70,78.12a.32.32,0,0,1,.25-.08.22.22,0,0,1,.25.25v2l1.92.66c.08,0,.17.17.17.25s0,.42-.09.42Zm5.09-7.42-1.5,1.42L77,77.45v.09a.22.22,0,0,1-.25.25h-.16l-1.76-1-1.5,1.33c-.08.08-.08.08-.16.08a.22.22,0,0,1-.25-.25v-.08l.41-2-1.75-1c-.08-.09-.16-.17-.16-.25a.22.22,0,0,1,.25-.25l2-.25.41-2a.37.37,0,0,1,.25-.25c.09,0,.17.08.25.16l.84,1.84,2-.25a.22.22,0,0,1,.25.25c.08.16.08.25,0,.33Zm0-9.25-1.17,1.66,1.17,1.67c0,.08.08.08.08.17a.22.22,0,0,1-.25.25h-.08l-1.92-.59L74.2,69.78a.29.29,0,0,1-.25.09.22.22,0,0,1-.25-.25v-2L71.78,67c-.08,0-.16-.17-.16-.25s.08-.25.16-.25l1.92-.67v-2a.22.22,0,0,1,.25-.25c.08,0,.17.08.25.08l1.17,1.67,1.92-.58h.08a.22.22,0,0,1,.25.25c.08-.17.08-.09,0,0Z" transform="translate(0 0)"/><path class="cls-1" d="M56.69,113.39a56.7,56.7,0,1,1,56.7-56.7A56.76,56.76,0,0,1,56.69,113.39Zm0-106.64a50,50,0,1,0,50,49.94A50,50,0,0,0,56.69,6.75Z" transform="translate(0 0)"/></svg>