<svg id="图层_1" data-name="图层 1" xmlns="http://www.w3.org/2000/svg" viewBox="0 0 113.39 121.48"><defs><style>.cls-1{fill:#bfcbd9;}</style></defs><title>基本信息</title><path class="cls-1" d="M105.29,10.12h-81a8.1,8.1,0,0,0-8.1,8.1v89.09a8.09,8.09,0,0,0,8.1,8.1h81a8.1,8.1,0,0,0,8.1-8.1V18.22A8.1,8.1,0,0,0,105.29,10.12Zm0,93.14a4,4,0,0,1-4.05,4H28.35a4,4,0,0,1-4.05-4v-81a4.05,4.05,0,0,1,4.05-4.05h72.89a4.05,4.05,0,0,1,4.05,4.05h0Z" transform="translate(0 -10.12)"/><path class="cls-1" d="M93.14,91.11H36.45a4,4,0,0,1,0-8.1H93.14a4,4,0,0,1,0,8.1Z" transform="translate(0 -10.12)"/><path class="cls-1" d="M93.14,66.81H36.45a4,4,0,1,1,0-8.09H93.14a4,4,0,1,1,0,8.09Z" transform="translate(0 -10.12)"/><path class="cls-1" d="M68.84,42.52H36.45a4.05,4.05,0,1,1,0-8.1H68.84a4.05,4.05,0,0,1,0,8.1Z" transform="translate(0 -10.12)"/><path class="cls-1" d="M97.19,131.61H8.1A8.11,8.11,0,0,1,0,123.5V34.42a8.1,8.1,0,0,1,8.1-8.09V123.5h97.19A8.11,8.11,0,0,1,97.19,131.61Z" transform="translate(0 -10.12)"/></svg>