<svg id="图层_1" data-name="图层 1" xmlns="http://www.w3.org/2000/svg" viewBox="0 0 113.29 113.37"><defs><style>.cls-1{fill:#bfcbd9;}</style></defs><title>农作物管理</title><path class="cls-1" d="M21.6,113.39a2.16,2.16,0,0,1-1.34-3.84A77.26,77.26,0,0,1,37,99.46c.78-.36,1.46-.68,2-1a21,21,0,0,1,9.36-2.32c.79,0,3.87.17,8.84.45,5.31.3,11.93.68,13.61.68h.65c2.92,0,7.33,0,10.07-1.55C83,94.88,103.13,80,105,78.52c.26-.2.56-.41.91-.65.89-.61,3-2.06,3.14-3a.65.65,0,0,0-.13-.36c-1-1.47-1.77-1.27-3.09-.75l-.18.07c-2.57,1-11.31,7.26-15.5,10.27C89,85,88,85.66,87.46,86a14.35,14.35,0,0,1-8.57,2.48c-2.31,0-20.58-1.74-22.66-2H56A13.7,13.7,0,0,1,52,85a3.74,3.74,0,0,1-1.79-3.9c.17-.92,1-3.14,4.91-3.83,3.71-.65,22.76-2.42,24.51-2.49h.1a.36.36,0,0,0-.19-.26c-2.54-1-31.1-3.33-42.91-1.6-9.6,1.41-12.69,3.83-15.41,6-.45.34-.9.7-1.37,1C17.39,81.71,8.94,92,3.86,98.56A2.16,2.16,0,0,1,.45,95.92h0C1.8,94.2,13.6,79.15,17.29,76.46c.4-.29.81-.61,1.24-.95,3-2.35,6.72-5.27,17.45-6.84,7.42-1.09,20.44-.54,25.69-.26,7.86.43,17.29,1.27,19.42,2.12A4.71,4.71,0,0,1,84,75.63a4.18,4.18,0,0,1-4.18,3.47c-1.24.05-20.25,1.78-23.93,2.44a4,4,0,0,0-.83.21,10.62,10.62,0,0,0,1.74.54c8.08.78,20.56,1.92,22.13,1.92A10.16,10.16,0,0,0,85,82.49c.51-.35,1.45-1,2.64-1.88,6.47-4.64,13.62-9.69,16.46-10.79l.16-.06A6.29,6.29,0,0,1,112.45,72a4.74,4.74,0,0,1,.85,3.59c-.49,2.71-3.16,4.56-4.94,5.79-.29.19-.55.38-.72.5-1.19.93-22.13,16.49-24,17.56-3.74,2.15-8.85,2.13-12.23,2.12h-.63c-1.81,0-8.21-.37-13.86-.69-3.87-.22-7.89-.44-8.6-.44a16.72,16.72,0,0,0-7.43,1.87c-.64.32-1.34.65-2.15,1A73.37,73.37,0,0,0,23,112.92a2.21,2.21,0,0,1-1.35.47ZM68.32,46.87a2.69,2.69,0,0,1-1.15-.26C64.48,45.34,57.85,42,54.35,39c-4.82-4.25-6.06-9.25-4.75-19.1a2.69,2.69,0,0,1,3-2.32,2.83,2.83,0,0,1,1.2.42,119.94,119.94,0,0,0,11.34,7c3.14,1.68,5.08,5.16,5.79,10.34a38.81,38.81,0,0,1,0,9.14,2.67,2.67,0,0,1-2.66,2.39ZM53.56,23.05c-.65,7.36.76,10.15,3.63,12.68,2.41,2.12,6.84,4.52,9.7,6,.25-5.31-.59-11.18-3.79-12.89C59.28,26.73,55.86,24.57,53.56,23.05ZM75.39,46.87a2.69,2.69,0,0,1-2.67-2.39,38.81,38.81,0,0,1,0-9.14c.71-5.18,2.66-8.66,5.79-10.34A122,122,0,0,0,89.9,18a2.68,2.68,0,0,1,3.74.67h0a2.8,2.8,0,0,1,.46,1.18c1.31,9.85.06,14.85-4.76,19.1-3.49,3-10.12,6.38-12.81,7.65A2.55,2.55,0,0,1,75.39,46.87Zm14.75-24c-2.3,1.53-5.72,3.69-9.54,5.74-3.2,1.73-4,7.59-3.79,12.9,2.86-1.44,7.28-3.84,9.69-6,2.88-2.53,4.29-5.33,3.64-12.68Z" transform="translate(-0.07 -0.02)"/><path class="cls-1" d="M67.33,69a2.55,2.55,0,0,1-1.09-.24c-2.55-1.22-8.84-4.35-12.16-7.27-4.57-4-5.75-8.78-4.51-18.12a2.56,2.56,0,0,1,2.87-2.2,2.42,2.42,0,0,1,1.12.44,113.06,113.06,0,0,0,10.76,6.64c3,1.6,4.82,4.9,5.49,9.8a37,37,0,0,1,0,8.67A2.55,2.55,0,0,1,67.33,69Zm-14-22.61c-.61,7,.73,9.63,3.45,12A49.58,49.58,0,0,0,66,64c.24-5-.56-10.6-3.59-12.23a105.66,105.66,0,0,1-9.08-5.41ZM74,69a2.55,2.55,0,0,1-2.53-2.27,37,37,0,0,1,0-8.67c.68-4.91,2.53-8.21,5.5-9.8A117.94,117.94,0,0,0,87.8,41.58a2.56,2.56,0,0,1,3.56.64,2.7,2.7,0,0,1,.44,1.13c1.24,9.34.06,14.08-4.52,18.12-3.31,2.92-9.6,6-12.15,7.26A2.61,2.61,0,0,1,74,69ZM88,46.36c-2.18,1.44-5.43,3.5-9,5.44C76,53.44,75.15,59,75.39,64a49.58,49.58,0,0,0,9.19-5.66c2.73-2.39,4.07-5,3.45-12ZM70.53,29a2.56,2.56,0,0,1-1.15-.27,13.28,13.28,0,0,1-6.72-8.47c-1.32-5.39.65-11.82,5.85-19.13A2.55,2.55,0,0,1,72.05.46h0a2.76,2.76,0,0,1,.55.53c1.71,2.24,7.21,10.15,5.93,17.89A14.22,14.22,0,0,1,72,28.52,2.66,2.66,0,0,1,70.53,29Zm.09-23.71c-3.53,5.46-4.91,10.27-4,14a9,9,0,0,0,3.82,5.35,9.79,9.79,0,0,0,4.07-6.36c.8-4.84-2.07-10.17-3.9-13Z" transform="translate(-0.07 -0.02)"/></svg>