<svg id="图层_1" data-name="图层 1" xmlns="http://www.w3.org/2000/svg" viewBox="0 0 113.39 113.39"><defs><style>.cls-1{fill:#bfcbd9;}</style></defs><title>数据异常</title><rect class="cls-1" y="70.66" width="18.81" height="42.72" rx="2.83"/><rect class="cls-1" x="25.31" width="18.81" height="113.39" rx="2.83"/><path class="cls-1" d="M80.75,57.12C81.87,55.25,83.47,54,85,54s3,1.47,3.88,2.9c.45.76,2.8,4.63,5.88,9.74V11.37A2.84,2.84,0,0,0,91.9,8.53H78.76a2.85,2.85,0,0,0-2.84,2.84V65.22C78.61,60.68,80.54,57.45,80.75,57.12Z" transform="translate(0.02 0)"/><path class="cls-1" d="M75.92,105v5.55a2.85,2.85,0,0,0,2.84,2.84H91.9a2.84,2.84,0,0,0,2.83-2.84V105Z" transform="translate(0.02 0)"/><path class="cls-1" d="M58.63,105c-2.05,0-3.58-.55-4-1.43a3.44,3.44,0,0,1-.31-1.26,1.91,1.91,0,0,1,0-.39,7,7,0,0,1,1.14-3.16c.74-1.22,7.65-12.88,14-23.56V49.52a2.85,2.85,0,0,0-2.84-2.83H53.44a2.84,2.84,0,0,0-2.83,2.83v61a2.84,2.84,0,0,0,2.83,2.84H66.58a2.85,2.85,0,0,0,2.84-2.84V105Z" transform="translate(0.02 0)"/><path class="cls-1" d="M112.57,98.44c-1.08-1.81-22.25-36.81-23.67-39.17-.84-1.33-2.22-2.7-3.61-2.7s-2.88,1.16-3.92,2.9c-.7,1.1-21.74,36.62-23,38.73a6.35,6.35,0,0,0-1.06,2.94,1,1,0,0,0,0,.17,1.15,1.15,0,0,0,0,.19,3,3,0,0,0,.29,1.17c.41.82,1.84,1.33,3.74,1.33h48.11c1.56,0,3-.34,3.58-1.43a4.26,4.26,0,0,0-.45-4.13Zm-29-22.6a2.07,2.07,0,0,1,1.89-2.19,2,2,0,0,1,1.9,2.07V87.63a1.92,1.92,0,0,1-1.9,2,1.89,1.89,0,0,1-1.89-2ZM85.49,96a2.11,2.11,0,1,1,2.1-2.1A2.08,2.08,0,0,1,85.49,96Z" transform="translate(0.02 0)"/></svg>