<svg id="图层_1" data-name="图层 1" xmlns="http://www.w3.org/2000/svg" viewBox="0 0 113.39 113.4"><defs><style>.cls-1{fill:#bfcbd9;}</style></defs><title>基地信息管理</title><path class="cls-1" d="M110.06,60.64l-1.21-.08a34.79,34.79,0,0,1-5.18-.87c-3.29-.77-6.14-2.49-9.14-4-2.29-1.16-4.75-4-6.78-5.54l-.34-.23h0a112.89,112.89,0,0,1-10.6,7.27,35.11,35.11,0,0,1-7.92,3,43.37,43.37,0,0,1-7,.63h-.35V86.47a19.18,19.18,0,0,0,2.23,8.76,34,34,0,0,0,6.71,9,37.78,37.78,0,0,0,9.58,7,20.16,20.16,0,0,0,5.77,2l1.14.16h1c.48-.08,1-.13,1.46-.22a18.67,18.67,0,0,0,4.43-1.44,38.43,38.43,0,0,0,12.44-9.42,31.59,31.59,0,0,0,5.18-7.71,20.23,20.23,0,0,0,1.82-6.22q.09-1,.09-1.92V60.79ZM107.18,91.5a30.15,30.15,0,0,1-5.83,7.77A36.53,36.53,0,0,1,93,105.54a15.86,15.86,0,0,1-4.54,1.74A7.13,7.13,0,0,1,85,107a23.5,23.5,0,0,1-5.91-3A37.16,37.16,0,0,1,69,93.89,7,7,0,0,1,67.51,91l-.27-1.31c-.07-.34-.09-3.46-.08-9.37l.08-13.8c1.18-.19,8.49-2.86,9.57-3.37l.78-.38a108.21,108.21,0,0,0,9.66-5.06.33.33,0,0,1,.4,0A64.69,64.69,0,0,0,98,63.16c2.57,1,8.61,3.21,9.63,3.37V86.47C107.56,88.87,108.25,89.38,107.18,91.5Z" transform="translate(0.01 0.01)"/><path class="cls-1" d="M23.05,1.91v7.7H11.53A3.62,3.62,0,0,0,7.7,13v79.3a3.51,3.51,0,0,0,3.21,3.81l.32,0H38.44q3.8.85,3.8,3.87c0,1.9-1.13,3.15-3.39,3.72l-.41.1H10.51A10.69,10.69,0,0,1,0,93.37V12.49A10.44,10.44,0,0,1,10.15,1.92h12.9Z" transform="translate(0.01 0.01)"/><polygon class="cls-1" points="98.17 73 101.86 76.54 85.6 96.08 74.95 86.65 78.23 82.62 85.08 88.63 98.06 73.12 98.17 73 98.17 73"/><path class="cls-1" d="M46.13,69.22a3.85,3.85,0,0,1,.26,7.68H21.1a4.14,4.14,0,0,1-3.8-3.84,4.08,4.08,0,0,1,3.54-3.84Z" transform="translate(0.01 0.01)"/><path class="cls-1" d="M55.73,48.07a4.2,4.2,0,0,1,3.85,3.84A4.25,4.25,0,0,1,56,55.75H21.19A4.15,4.15,0,0,1,17.3,51.9a4.15,4.15,0,0,1,3.62-3.83Z" transform="translate(0.01 0.01)"/><path class="cls-1" d="M85.52,1.91c3.85,0,10.27,4.65,10.56,10.45v28q-.7,3.87-3.79,3.87-2.92,0-3.81-3.48l-.09-.39V13.45a3.49,3.49,0,0,0-3.1-3.82,2.77,2.77,0,0,0-.41,0H73V1.91Z" transform="translate(0.01 0.01)"/><path class="cls-1" d="M75,26.91a4.08,4.08,0,0,1,3.85,3.85,4.11,4.11,0,0,1-3.59,3.83H21.16a4.22,4.22,0,0,1-3.86-4.13,4,4,0,0,1,3.58-3.55H75Z" transform="translate(0.01 0.01)"/><path class="cls-1" d="M57.47,0c2.25,0,4,2.1,4,4.61V6.92a4.37,4.37,0,0,1-4,4.61H38.62c-2.22,0-4-2.06-4-4.61V4.6a4.34,4.34,0,0,1,4-4.61Z" transform="translate(0.01 0.01)"/></svg>