<svg id="图层_1" data-name="图层 1" xmlns="http://www.w3.org/2000/svg" viewBox="0 0 113.39 108.37"><defs><style>.cls-1{fill:#bec9d7;}</style></defs><title>病虫害分析</title><path class="cls-1" d="M113.38,64.44A4.24,4.24,0,0,1,112,67.55a4.43,4.43,0,0,1-3.19,1.31H93q0,11.82-4.74,20L103,103.34a4.29,4.29,0,0,1,0,6.23,4.54,4.54,0,0,1-6.38,0L82.56,96a13.06,13.06,0,0,1-1.07.9c-.47.37-1.46,1-3,2a45.79,45.79,0,0,1-4.61,2.52,32.47,32.47,0,0,1-5.81,2,27,27,0,0,1-6.87.9V42.32H52.15v61.92a28.64,28.64,0,0,1-7.19-.92A29.79,29.79,0,0,1,38.8,101a51.93,51.93,0,0,1-4.68-2.7A24.55,24.55,0,0,1,31,96.09l-1.06-1L17,109.43a4.61,4.61,0,0,1-3.4,1.45,4.71,4.71,0,0,1-3-1.11,4.36,4.36,0,0,1-1.45-3.07,4.32,4.32,0,0,1,1.09-3.22L24.52,87.79q-4.11-7.87-4.11-18.93H4.53a4.42,4.42,0,0,1-3.18-1.31,4.26,4.26,0,0,1,0-6.22A4.43,4.43,0,0,1,4.53,60H20.41V39.69L8.15,27.74a4.26,4.26,0,0,1,0-6.22,4.53,4.53,0,0,1,6.38,0l12.26,12H86.6l12.25-12a4.53,4.53,0,0,1,6.38,0,4.26,4.26,0,0,1,0,6.22L93,39.69V60h15.88A4.4,4.4,0,0,1,112,61.33a4.22,4.22,0,0,1,1.35,3.11Zm-34-39.82H34A21,21,0,0,1,40.64,9a22.11,22.11,0,0,1,16-6.46A22.14,22.14,0,0,1,72.74,9a21.13,21.13,0,0,1,6.63,15.65Z" transform="translate(0 -2.51)"/></svg>