<svg id="图层_1" data-name="图层 1" xmlns="http://www.w3.org/2000/svg" viewBox="0 0 113.38 98.27"><defs><style>.cls-1{fill:#bfcbd9;}</style></defs><title>企业信息</title><path class="cls-1" d="M37.8,30.24a3.78,3.78,0,0,1,0,7.55H30.24a3.78,3.78,0,1,1-.39-7.55H37.8Zm0,15.11a3.78,3.78,0,1,1,0,7.56H30.24a3.78,3.78,0,1,1,0-7.56Zm0,15.09a3.78,3.78,0,0,1,0,7.56H30.24a3.78,3.78,0,1,1,0-7.56H37.8Zm0,15.12a3.78,3.78,0,0,1,0,7.56H30.24a3.78,3.78,0,1,1,0-7.56ZM60.47,30.24a3.78,3.78,0,0,1,0,7.55H52.91a3.78,3.78,0,0,1-.39-7.55h7.95Zm0,15.11a3.78,3.78,0,0,1,0,7.56H52.91a3.78,3.78,0,1,1,0-7.56Zm0,15.12a3.78,3.78,0,0,1,0,7.56H52.91a3.78,3.78,0,1,1,0-7.56h7.57Zm0,15.12a3.78,3.78,0,1,1,0,7.56H52.91a3.78,3.78,0,1,1,0-7.56h7.57Zm49.14,22.68a3.78,3.78,0,0,1,0,7.56H3.78a3.78,3.78,0,1,1,0-7.56h7.56V15.12a7.54,7.54,0,0,1,7.54-7.56H71.81a7.55,7.55,0,0,1,7.56,7.54v0h0v7.56H94.49a7.56,7.56,0,0,1,7.56,7.56h0v68Zm-90.71,0H71.81V15.12H18.9Zm60.47,0H94.49v-68H79.37Z" transform="translate(0 -7.56)"/></svg>