<svg id="图层_1" data-name="图层 1" xmlns="http://www.w3.org/2000/svg" viewBox="0 0 113.39 113.39"><defs><style>.cls-1{fill:#bfcbd9;}</style></defs><title>基地环境监测</title><path class="cls-1" d="M56.69,5.81a50.88,50.88,0,0,1,36,86.88,50.95,50.95,0,0,1-55.8,10.91A50.9,50.9,0,0,1,56.69,5.81m0-5.81a56.7,56.7,0,1,0,56.7,56.69A56.7,56.7,0,0,0,56.69,0Z"/><path class="cls-1" d="M32.61,83.42a2,2,0,0,1-2-2c0-6.8,2-9.79,5.9-16.07a16.65,16.65,0,0,1-2.26-4.62,23.26,23.26,0,0,1-.37-12.2,18.57,18.57,0,0,1,5.77-9.46,24.1,24.1,0,0,1,10.2-4.78c7.29-1.74,17-1.88,29.93-1.88h3.43a1.94,1.94,0,0,1,1.5.69h0l0,0a2,2,0,0,1,.45,1.62c-1.74,10-4.43,18.21-8,24.43A30.3,30.3,0,0,1,65.89,70.91a23,23,0,0,1-11.28,2.88c-.75,0-1.5,0-2.22-.09a27.56,27.56,0,0,1-7.82-1.87,19,19,0,0,1-2.3-1.15,2,2,0,1,1,2-3.41,12.25,12.25,0,0,0,1.78.88,23.15,23.15,0,0,0,8.51,1.69A19.11,19.11,0,0,0,64,67.43c8.07-4.46,13.75-14.9,16.88-31H80c-26.06,0-38.74.56-42.27,13.21a19.5,19.5,0,0,0,.34,10A12.68,12.68,0,0,0,39,61.82,48.1,48.1,0,0,1,43.2,57a46.08,46.08,0,0,1,11-8.19,23.48,23.48,0,0,1,10.42-3,2,2,0,0,1,0,4A19.86,19.86,0,0,0,56,52.36a41.71,41.71,0,0,0-10,7.47c-4.27,4.26-11.42,9.57-11.42,21.61A2,2,0,0,1,32.61,83.42Z"/></svg>