<svg id="图层_1" data-name="图层 1" xmlns="http://www.w3.org/2000/svg" viewBox="0 0 113.43 113.52"><defs><style>.cls-1{fill:#bfcbd9;}</style></defs><title>厂商管理</title><path class="cls-1" d="M69.68,0H43.48a3.1,3.1,0,0,0-3.11,3.09V29.31a3.11,3.11,0,0,0,3.1,3.12H69.68a3.14,3.14,0,0,0,3.11-3.18V3.12A3.11,3.11,0,0,0,69.69,0ZM66.5,26.14H46.6V6.24H66.5Z" transform="translate(0 0)"/><path class="cls-1" d="M69.68,81.09H43.48a3.1,3.1,0,0,0-3.11,3.09V110.4a3.11,3.11,0,0,0,3.1,3.12H69.68a3.15,3.15,0,0,0,3.11-3.12V84.21a3.11,3.11,0,0,0-3.1-3.12ZM66.5,107.22H46.6V87.32H66.5Z" transform="translate(0 0)"/><path class="cls-1" d="M29.31,81.09H3.12A3.11,3.11,0,0,0,0,84.19V110.4a3.11,3.11,0,0,0,3.1,3.12H29.31a3.06,3.06,0,0,0,3.12-3V84.21a3.11,3.11,0,0,0-3.1-3.12Zm-3.12,26.13H6.29V87.32h19.9Z" transform="translate(0 0)"/><path class="cls-1" d="M110.27,81.09H84.08A3.1,3.1,0,0,0,81,84.21h0V110.4a3.11,3.11,0,0,0,3.1,3.12h26.21a3.15,3.15,0,0,0,3.12-3.12V84.21a3.11,3.11,0,0,0-3.1-3.12Zm-3.18,26.13H87.19V87.32h19.9Z" transform="translate(0 0)"/><path class="cls-1" d="M97.17,85c-1.76,0-3.12-2-3.12-4.34V55.87H19.39V80.66C19.39,83.11,18,85,16.27,85s-3.12-2-3.12-4.34V51.45c0-2.44,1.42-4.34,3.12-4.34h80.9c1.76,0,3.12,2,3.12,4.34V80.66C100.29,83,98.87,85,97.17,85Z" transform="translate(0 0)"/><path class="cls-1" d="M56.58,85c-1.76,0-3.12-1.73-3.12-3.81V29.94c0-2.14,1.42-3.8,3.12-3.8s3.12,1.73,3.12,3.8V81.19C59.7,83.27,58.28,85,56.58,85Z" transform="translate(0 0)"/></svg>