<svg id="图层_1" data-name="图层 1" xmlns="http://www.w3.org/2000/svg" viewBox="0 0 113.39 100.79"><defs><style>.cls-1{fill:#bfcbd9;}</style></defs><title>采收批次管理</title><path class="cls-1" d="M94.5,18.77H18.91a6.3,6.3,0,0,1,0-12.6H94.5a6.3,6.3,0,0,1,0,12.6Zm0,88.19H18.91a6.3,6.3,0,0,1,0-12.6H94.5a6.3,6.3,0,0,1,0,12.6Zm12.6-25.2H6.31A6.3,6.3,0,0,1,0,75.46V37.67a6.3,6.3,0,0,1,6.3-6.3H107.1a6.3,6.3,0,0,1,6.3,6.3V75.46A6.3,6.3,0,0,1,107.1,81.76ZM12.61,69.16H100.8V44H12.61Z" transform="translate(-0.01 -6.17)"/></svg>