<svg id="图层_1" data-name="图层 1" xmlns="http://www.w3.org/2000/svg" viewBox="0 0 113.39 106.94"><title>采收管理</title><path d="M98.33,44.26h8.75a6.3,6.3,0,0,1,6,8.31l-18.9,56.69a6.31,6.31,0,0,1-6,4.29h-63a6.31,6.31,0,0,1-6-4.29L.35,52.57a6.29,6.29,0,0,1,4-8,6.08,6.08,0,0,1,2-.33h8.72L32.21,9.93a6.3,6.3,0,0,1,11.27,5.6L29.12,44.26H84.25L69.92,15.6A6.3,6.3,0,0,1,81.2,10L98.33,44.26ZM94.19,56.88H15.4L30,100.63H83.45L98,56.88H94.19Zm-50,31.25A6.25,6.25,0,0,1,38,81.88V75.63a6.25,6.25,0,0,1,12.5,0v6.25A6.25,6.25,0,0,1,44.21,88.13Zm25,0A6.25,6.25,0,0,1,63,81.88V75.63a6.25,6.25,0,0,1,12.5,0v6.25A6.25,6.25,0,0,1,69.2,88.13Z" transform="translate(-0.01 -6.6)"/></svg>