<?xml version="1.0" encoding="utf-8"?>
<!-- Generator: Adobe Illustrator 23.1.0, SVG Export Plug-In . SVG Version: 6.00 Build 0)  -->
<svg version="1.1" id="图层_1" xmlns="http://www.w3.org/2000/svg" xmlns:xlink="http://www.w3.org/1999/xlink" x="0px" y="0px"
	 viewBox="0 0 113.4 113.4" style="enable-background:new 0 0 113.4 113.4;" xml:space="preserve">
<style type="text/css">
	.st0{fill:#BFCBD9;}
</style>
<path class="st0" d="M111,50.5L68.7,5.2C62.2-1.6,51.6-1.8,45,5c-0.1,0.1-0.2,0.2-0.3,0.3L2.3,50.5c-3.2,3.4-3.1,8.9,0.2,12.2
	c1.6,1.6,3.7,2.5,5.8,2.4h3.9v31.1c0.1,9.5,7.5,17.2,16.6,17.2h15.6c3.4,0,6.2-2.9,6.3-6.5V73.5h11.9v33.4c0,3.6,2.8,6.5,6.3,6.5
	h14.2c9.1,0,16.6-7.6,16.6-17.2V65.1h5.4c4.6,0,8.3-3.8,8.3-8.6C113.4,54.3,112.6,52.1,111,50.5z M97.6,56.4c-3.4,0-6.2,2.9-6.3,6.5
	v33.4c0,4.7-3.8,8.5-8.3,8.4H71V73.4c0-4.8-3.7-8.6-8.3-8.6h-12c-4.6,0-8.3,3.8-8.3,8.6v31.3H28.9c-4.5,0-8.2-3.7-8.3-8.4V62.9
	c0-3.6-2.8-6.5-6.3-6.5l-5.9,0l42.2-45.1c3.2-3.4,8.6-3.5,11.9-0.1c0,0,0.1,0.1,0.1,0.1l42.2,45.1L97.6,56.4L97.6,56.4z M105.1,56.6
	C105.1,56.6,105.1,56.6,105.1,56.6l3-3.1L105.1,56.6z"/>
</svg>
