<svg id="图层_1" data-name="图层 1" xmlns="http://www.w3.org/2000/svg" viewBox="0 0 113.39 113.39"><defs><style>.cls-1{fill:#bfcbd9;}</style></defs><title>巡视反馈</title><path class="cls-1" d="M56.71,6.85A49.59,49.59,0,1,1,7.13,56.44,49.65,49.65,0,0,1,56.71,6.85m0-7.11a56.7,56.7,0,1,0,56.7,56.7A56.7,56.7,0,0,0,56.71-.26Z" transform="translate(-0.02 0.26)"/><path class="cls-1" d="M56.43,32.83c-21.71,0-33.21,23.72-33.21,23.72S34.59,80.27,56.43,80.27c20.42,0,33.21-23.72,33.21-23.72S77,32.83,56.43,32.83Zm0,14.55a9.17,9.17,0,1,1-9.26,9.16,9.3,9.3,0,0,1,.67-3.42l8.59,3.42-2.55-8.81a9.69,9.69,0,0,1,2.55-.35Zm0,23.41A14.25,14.25,0,1,1,70.71,56.55,14.27,14.27,0,0,1,56.43,70.79Z" transform="translate(-0.02 0.26)"/></svg>