<svg id="图层_1" data-name="图层 1" xmlns="http://www.w3.org/2000/svg" viewBox="0 0 113.39 107.68"><defs><style>.cls-1{fill:#bfcbd9;}</style></defs><title>病虫害反馈</title><path class="cls-1" d="M75.74,2.73,89.1,16.09v6.68L75.74,36.13,54,17.76l15-15ZM47.34,24.44,69.06,42.81,32.31,81.92H29L12.27,68.56V61.88ZM8.93,75.24,24,86.93l-21.71,6L8.93,75.24Zm36,6.82a4.74,4.74,0,0,1,4.71-4.73h59.08a4.73,4.73,0,0,1,0,9.45H49.59A4.7,4.7,0,0,1,44.88,82.06ZM0,105.68A4.72,4.72,0,0,1,4.73,101H108.66a4.72,4.72,0,1,1,0,9.44H4.73A4.71,4.71,0,0,1,0,105.7v0Z" transform="translate(0 -2.73)"/></svg>