<?xml version="1.0" encoding="utf-8"?>
<!-- Generator: Adobe Illustrator 23.1.0, SVG Export Plug-In . SVG Version: 6.00 Build 0)  -->
<svg version="1.1" id="图层_1" xmlns="http://www.w3.org/2000/svg" xmlns:xlink="http://www.w3.org/1999/xlink" x="0px" y="0px"
	 viewBox="0 0 113.4 113.4" style="enable-background:new 0 0 113.4 113.4;" xml:space="preserve">
<style type="text/css">
	.st0{fill:#FFFFFF;}
</style>
<title>病虫害管理</title>
<path class="st0" d="M109.1,84.3c0-2.8,1.2-5.5,3.3-7.3c1-0.8,1.2-2.2,0.6-3.3l-4.6-7.8c-0.6-1.1-1.9-1.6-3.1-1.2
	c-1,0.3-2.1,0.5-3.1,0.5c-4.7,0-8.9-3.2-9.9-7.8c-0.2-1.2-1.3-2.1-2.6-2.1h-9.1c-1.3,0-2.3,0.9-2.6,2.1c-1.1,4.6-5.2,7.8-9.9,7.8
	c-1,0-2.1-0.2-3.1-0.5c-1.2-0.4-2.5,0.1-3.1,1.2l-4.6,7.8c-0.7,1.1-0.5,2.5,0.5,3.4c4.1,3.5,4.5,9.7,0.9,13.8c0,0,0,0,0,0
	c-0.3,0.3-0.6,0.6-0.9,0.9c-0.9,0.8-1.2,2.2-0.6,3.3l4.6,7.8c0.6,1.1,1.9,1.6,3.1,1.2c1-0.3,2.1-0.5,3.1-0.5c4.7,0,8.8,3.2,9.9,7.8
	c0.3,1.2,1.3,2.1,2.6,2.1h9.1c1.2,0,2.3-0.9,2.6-2.1c1.1-4.6,5.2-7.9,9.9-7.8c1.1,0,2.1,0.2,3.1,0.5c1.2,0.4,2.5-0.1,3.1-1.2L113,95
	c0.6-1.1,0.4-2.5-0.6-3.3C110.3,89.8,109.1,87.1,109.1,84.3L109.1,84.3z M105.4,99.7c-2.9-0.7-6-0.4-8.8,0.7c-1.7,0.7-3.2,1.7-4.5,3
	c-1.3,1.3-2.4,2.8-3.1,4.5c-0.2,0.4-0.4,0.9-0.5,1.3h-6.8c-0.1-0.5-0.3-0.9-0.5-1.3c-0.7-1.7-1.8-3.2-3.1-4.5
	c-3.5-3.4-8.5-4.8-13.3-3.7l-3.4-5.8c0.7-0.7,1.3-1.5,1.8-2.4c3.2-5.4,2.5-12.3-1.8-16.8l3.4-5.8c4.8,1.1,9.8-0.3,13.3-3.7
	c1.3-1.3,2.4-2.8,3.1-4.5c0.2-0.4,0.4-0.9,0.5-1.3h6.8c0.1,0.5,0.3,0.9,0.5,1.3c0.7,1.7,1.8,3.2,3.1,4.5c1.3,1.3,2.8,2.3,4.5,3
	c2.8,1.1,5.8,1.4,8.8,0.7l3.4,5.8c-0.7,0.7-1.3,1.5-1.8,2.4c-2.7,4.4-2.7,10,0,14.4c0.5,0.9,1.2,1.7,1.8,2.4L105.4,99.7z"/>
<path class="st0" d="M85.2,71.8c-6.9,0-12.5,5.6-12.5,12.5s5.6,12.5,12.5,12.5s12.5-5.6,12.5-12.5l0,0C97.6,77.4,92,71.8,85.2,71.8z
	 M91,90.2c-3.2,3.3-8.5,3.3-11.8,0c-3.3-3.2-3.3-8.5,0-11.8c3.2-3.3,8.5-3.3,11.8,0c1.6,1.6,2.4,3.7,2.4,5.9
	C93.4,86.5,92.6,88.6,91,90.2z"/>
<path class="st0" d="M58.2,54.5c1.9,0.1,3.5-1.3,3.6-3.2c0,0,0,0,0,0c0-0.1,0-0.3,0-0.4V29.8c11.7,1.5,21.9,8.9,26.9,19.6
	c0.7,2.2,2.9,2.9,5.1,1.5c2.2-0.7,2.9-2.9,1.5-5.1L93,41.4c4.9-4,8.8-8.9,11.6-14.5c0.7-1.5,0-3.6-1.4-5.1c-1.4-0.7-3.6,0-5.1,1.5
	c-2.9,5.1-5.8,9.5-9.4,12.4c-2.9-2.9-5.8-5.8-8.7-7.3c0-0.7,0.7-0.7,0.7-1.5c0-1.5,0.7-2.9,0.7-4.4C81.3,10.1,71.3,0.1,58.9,0
	c-12.4,0-24,10.9-24,23.3c-0.1,1.5,0.1,3,0.7,4.4c0,0.7,0,0.7,0.7,0.7c-3.4,2-6.6,4.5-9.5,7.3c-3.6-2.9-6.5-7.3-8.7-11.6
	c-1.5-2.2-3.6-2.9-5.1-1.5c-2.2,0.7-2.9,2.9-1.4,4.4c2.9,5.8,6.5,10.9,11.6,14.5c-3.5,4.9-5.8,10.7-6.5,16.7H3.6
	c-2,0-3.6,1.6-3.6,3.6s1.6,3.6,3.6,3.6h13.8c0.7,5.1,1.5,10.2,3.6,14.6c-5.9,4.3-10.7,10-13.8,16.7c-0.7,1.4,0,3.6,1.5,5.1
	c0.7,0,0.7,0.7,1.5,0.7c1.5,0,2.9-0.8,3.6-2.2c2.2-5.1,6.5-10.2,10.9-13.8c5.4,7.7,13.4,13.1,22.5,15.3H48c1.7,0,3.3-1.2,3.6-2.9
	c0.7-2.2-0.7-3.6-2.9-4.4C34.2,90.8,24,77,24,61.8c0-17.4,13.1-31.3,29.8-33.4v21.1C54.5,52.3,56,54.5,58.2,54.5z M42.2,23.3
	c0-8.7,7.3-15.3,16-15.3c8.2-0.2,15.1,6.3,15.3,14.5c0,0,0,0,0,0c0,0.2,0,0.5,0,0.7v2.2c-5-2.3-10.5-3.6-16-3.6
	c-5.2-0.1-10.4,0.9-15.3,2.9C42.9,24,42.2,24,42.2,23.3z"/>
</svg>
