<svg id="图层_1" data-name="图层 1" xmlns="http://www.w3.org/2000/svg" viewBox="0 0 113.39 110.4"><defs><style>.cls-1{fill:#bfcbd9;}</style></defs><title>农残检测项</title><path class="cls-1" d="M78.57,33.32c9,6,14.92,15.91,15.92,27.85,3,0,6,1,9,2-1-15.92-9-29.84-21.88-37.8-1,2-1,5-3,8ZM72.61,99c-5,2-10,4-15.92,4s-10.94-1-15.91-4a43.11,43.11,0,0,1-6,7,42.67,42.67,0,0,0,21.88,6c8,0,15.92-2,21.88-6a43.6,43.6,0,0,1-6-7ZM18.9,61.17c1-11.94,7-21.88,15.91-27.85l-3-8.95C18.9,32.32,10.94,47.24,10,63.16c3-1,6-2,9-2Zm1,5A19.9,19.9,0,1,0,39.78,86,19.95,19.95,0,0,0,19.89,66.14ZM56.69,1.49a19.9,19.9,0,1,0,19.9,19.89A19.95,19.95,0,0,0,56.69,1.49Zm36.8,64.65A19.9,19.9,0,1,0,113.39,86a19.95,19.95,0,0,0-19.9-19.89Zm-73.6,0A19.9,19.9,0,1,0,39.78,86,19.95,19.95,0,0,0,19.89,66.14Z" transform="translate(0 -1.49)"/></svg>