<?xml version="1.0" encoding="utf-8"?>
<!-- Generator: Adobe Illustrator 23.1.0, SVG Export Plug-In . SVG Version: 6.00 Build 0)  -->
<svg version="1.1" id="图层_1" xmlns="http://www.w3.org/2000/svg" xmlns:xlink="http://www.w3.org/1999/xlink" x="0px" y="0px"
	 viewBox="0 0 113.4 113.4" style="enable-background:new 0 0 113.4 113.4;" xml:space="preserve">
<style type="text/css">
	.st0{fill:#FFFFFF;}
</style>
<title>种植管理</title>
<path class="st0" d="M106.6,12.8H87.1V4.7c-0.1-2.6-2.1-4.6-4.3-4.5c-2.3,0.3-4,2.2-3.9,4.5v8.1h-18V4.7C61,2.3,59.2,0.2,56.7,0
	c-2.4,0.2-4.3,2.3-4.1,4.7l0,0v8.1H34.7V4.7c0-2.4-1.9-4.4-4.3-4.5c0,0,0,0,0,0c-2.3,0.3-4,2.2-3.9,4.5v8.1H6.8
	c-3.6-0.2-6.6,3-6.8,7.1v86.3c0.2,4.1,3.2,7.3,6.8,7.1h99.8c3.6,0.2,6.6-3,6.8-7.1V19.9C113.2,15.8,110.2,12.7,106.6,12.8z
	 M7.5,106.5V21.4h18.9v8.1c-0.2,2.5,1.6,4.6,4,4.9c2.4,0,4.3-2,4.3-4.5v-8.5h17.9v8.1c-0.2,2.4,1.7,4.6,4.1,4.7
	c2.5-0.1,4.3-2.3,4.2-4.7c0,0,0,0,0,0v-8.1h18v8.1c-0.3,2.3,1.3,4.4,3.6,4.7c2.3,0.3,4.4-1.3,4.7-3.6c0.1-0.4,0.1-0.8,0-1.2v-8.1
	h18.7v85.1L7.5,106.5z"/>
<path class="st0" d="M63.6,51.9c0,1.7,1.4,3,3.1,3h24.7c1.7,0,3-1.4,3-3s-1.4-3-3-3H66.6c-1.7,0-3,1.3-3.1,2.9c0,0,0,0,0,0l0,0
	L63.6,51.9z M66.6,69.9h18.6c1.7,0.1,3.1-1.1,3.2-2.8c0.1-1.7-1.1-3.1-2.8-3.2h-19c-1.7-0.1-3.1,1.1-3.2,2.8
	c-0.1,1.7,1.1,3.1,2.8,3.2C66.3,69.9,66.5,69.9,66.6,69.9L66.6,69.9z M91.4,78.9H66.6c-1.7,0-3,1.3-3.1,2.9c0,1.7,1.3,3,2.9,3.1
	h24.9c1.7,0,3-1.4,3-3C94.4,80.1,93,78.8,91.4,78.9L91.4,78.9z"/>
<path class="st0" d="M46.1,62.9c-3,1.9-5,4.6-7,7.7c-1-2.4-1.3-5-0.7-7.6c0.5-2.3,2.2-3.5,4.4-4.1c2.6-0.7,5.3-1.3,8-1.7
	c1.9-0.3,3.8-0.8,5.6-1.5c0.7,0.6,0.1,1.1,0,1.6c-1.2,3.8-2.1,7.7-3.7,11.4c-1.9,4.4-4.5,5.6-9.1,4.6c-1.7-0.3-3.3,0.8-3.6,2.5
	c0,0.2,0,0.3,0,0.5c-0.1,0.4,0.1,0.7,0.5,0.8c1.6,0.6,2.6,2.4,4.5,2.6c0.7,0,1.2,0.6,1.2,1.2c0,0.7-0.6,0.9-1.1,1.1
	c-2.6,1.2-5.5,1.3-8.2,0.4c-1.5-0.5-3-1.2-4.4-2c-1.6-0.9-1.3-1.6-0.2-2.6c1.1-1,2.1-0.7,3.3-0.8c-0.3-2.1-1-4-2.1-5.8
	c-0.6-1-1.5-0.9-2.4-0.9c-2.1,0.2-4.1,0.1-6.2-0.4c-2.4-0.5-4.4-2.1-5.2-4.4c-1.3-3.5-1.6-7.3-3.6-10.5c-0.5-0.8,0.2-1,0.8-1
	c3.9-0.1,7.9-0.2,11.7,0.9c4.8,1.4,6.9,4.8,6.3,10.8c-2.2-2.6-4.2-5.2-7.2-6.4c-1-0.8-2.2-1.2-3.5-1.1l2.9,1.6
	c5.5,4.2,8.5,10,10.5,17.1c2-5.6,5.3-9.6,8.8-13.5c0.7-0.3,1.2-0.7,1.6-1.3l0.7-0.6c0.1,0,0.2-0.1,0.3-0.2c0.8-0.4,1.5-0.9,2.1-1.6
	l0.2-0.1v-0.1l-0.2,0.2c-0.9,0-1.8,0.5-2.4,1.2c-0.1,0-0.2,0.1-0.2,0.2l-0.8,0.5C47.1,61.9,46.5,62.3,46.1,62.9z M23.8,57.6
	l-0.3,0.2c0.1,0.1,0.2,0.1,0.3,0.1c0.1,0,0.2-0.1,0.3-0.2L23.8,57.6z"/>
</svg>
