<svg id="图层_1" data-name="图层 1" xmlns="http://www.w3.org/2000/svg" viewBox="0 0 113.39 113.39"><defs><style>.cls-1{fill:#bfcbd9;}</style></defs><title>临时农事管理</title><path class="cls-1" d="M94.47,27.81,56.68,65.57l8.82,8.8a6.08,6.08,0,0,1,0,8.81l-22,22a26.48,26.48,0,0,1-17.63,7.55A25.36,25.36,0,0,1,2.52,97C-1.26,87.59,0,77.52,7.56,70l22-22a6.09,6.09,0,0,1,8.82,0l8.81,8.81L85,19l-8.19-8.18a6.73,6.73,0,0,1,9.45-9.43l25.19,25.16c1.89,2.52,2.52,5,1.26,7.55a6.38,6.38,0,0,1-5.67,3.78A5.72,5.72,0,0,1,102.65,36ZM34,61.16,16.37,78.78a12.83,12.83,0,0,0-3.77,9.44A12.46,12.46,0,0,0,16.37,97,13.44,13.44,0,0,0,34,97L51.64,79.41Zm73.05,27.06H88.17a6.3,6.3,0,1,1,0-12.59h18.89a6.3,6.3,0,1,1,0,12.59Zm0-25.17h-6.3a6,6,0,0,1-6.29-6.29,6,6,0,0,1,6.29-6.3h6.3a6,6,0,0,1,6.3,6.3A6,6,0,0,1,107.06,63.05ZM56.68,12.71H6.3A6.29,6.29,0,1,1,6.3.13H56.68A5.94,5.94,0,0,1,63,6.42,6,6,0,0,1,56.68,12.71ZM25.19,37.88H6.3a6.29,6.29,0,1,1,0-12.58H25.19a5.94,5.94,0,0,1,6.3,6.29A6,6,0,0,1,25.19,37.88Zm81.87,75.51H69.28a6.3,6.3,0,1,1,0-12.59h37.78a6,6,0,0,1,6.3,6.29A6.31,6.31,0,0,1,107.06,113.39Z" transform="translate(0 0)"/></svg>