<svg id="图层_1" data-name="图层 1" xmlns="http://www.w3.org/2000/svg" viewBox="0 0 113.37 113.37"><defs><style>.cls-1{fill:#bfcbd9;}</style></defs><title>溯源管理样式</title><path class="cls-1" d="M56.69,88.18A31.5,31.5,0,1,1,88.18,56.69a6.3,6.3,0,0,1-12.6,0A18.9,18.9,0,1,0,56.69,75.58a6.3,6.3,0,0,1,0,12.6Z" transform="translate(0 0)"/><path class="cls-1" d="M56.69,113.37a56.69,56.69,0,1,1,56.68-56.68,6.3,6.3,0,0,1-12.6,0A44.07,44.07,0,1,0,83.08,92L52.21,61.16a6.3,6.3,0,0,1,8.88-8.88L96.74,87.93a6.3,6.3,0,0,1,0,8.88A56.7,56.7,0,0,1,56.69,113.37Z" transform="translate(0 0)"/></svg>