<svg id="图层_1" data-name="图层 1" xmlns="http://www.w3.org/2000/svg" viewBox="0 0 113.39 113.39"><defs><style>.cls-1{fill:#bfcbd9;}</style></defs><title>视频云配置sp</title><path class="cls-1" d="M56.69,113.39a56.7,56.7,0,1,1,56.7-56.7A56.75,56.75,0,0,1,56.69,113.39Zm0-104.76a48.07,48.07,0,1,0,48.07,48.06A48.11,48.11,0,0,0,56.69,8.63Z"/><path class="cls-1" d="M50.68,77.39a8.37,8.37,0,0,1-4-1,8.51,8.51,0,0,1-4.55-7.57V44.55a8.55,8.55,0,0,1,13.37-7.07L72.35,49.66a8.54,8.54,0,0,1-.07,14.11L55.61,75.84A8.73,8.73,0,0,1,50.68,77.39Zm-.13-32.86.21,24.3L67.32,56.71l0,0h0Z"/></svg>