<svg id="图层_1" data-name="图层 1" xmlns="http://www.w3.org/2000/svg" viewBox="0 0 113.39 96.23"><defs><style>.cls-1{fill:#bfcbd9;}</style></defs><title>监控设备</title><path class="cls-1" d="M95.25,71.28a156.41,156.41,0,0,0-18-12.1,11.87,11.87,0,0,0-11.79-.42,18.87,18.87,0,0,0-5.44,4,3.3,3.3,0,0,1-4.26.66L11.13,36.05,11,36a3.33,3.33,0,0,1-.94-4.62L22.16,13.18l.08-.12a10.89,10.89,0,0,1,14.46-2.9h0L111.8,56.36a3.32,3.32,0,0,1,.25,5.5L99.37,71.37a3.3,3.3,0,0,1-2,.67A3.34,3.34,0,0,1,95.25,71.28Zm-62-55.42a4.24,4.24,0,0,0-5.56,1.06L17.56,32.17,57,56.42a25.93,25.93,0,0,1,5.26-3.54,18.43,18.43,0,0,1,18.32.55A181.18,181.18,0,0,1,97.4,64.51l6.73-5.05Z" transform="translate(0 -8.58)"/><path class="cls-1" d="M67.37,86,10.09,48.23a3.34,3.34,0,0,1-1-4.57l5-7.93a1.28,1.28,0,0,1,.15-.25,3.34,3.34,0,0,1,5.48,3.81L16.5,44.46,68.26,78.59l8.39-12.71h0a3.33,3.33,0,1,1,5.56,3.67L72,85.05a3.34,3.34,0,0,1-4.62,1Z" transform="translate(0 -8.58)"/><path class="cls-1" d="M82.54,87.24a3.33,3.33,0,0,1-1.76-.5l-7.91-4.91a3.34,3.34,0,0,1,3.52-5.67l5,3.1,4-6.85a3.33,3.33,0,0,1,5.77,3.33l-5.68,9.84a3.34,3.34,0,0,1-2.89,1.66Zm-45.8-2.89A11.84,11.84,0,0,1,24.92,72.53h0A11.82,11.82,0,1,1,36.74,84.35Zm0-17a5.15,5.15,0,0,0-5.15,5.15h0a5.16,5.16,0,1,0,5.15-5.15Z" transform="translate(0 -8.58)"/><path class="cls-1" d="M36.37,70.22a2.27,2.27,0,1,0,2.27,2.26A2.27,2.27,0,0,0,36.37,70.22Z" transform="translate(0 -8.58)"/><path class="cls-1" d="M0,89.92V72.48a3.33,3.33,0,0,1,3.33-3.33H28.26a3.33,3.33,0,0,1,3.33,3.33v.08a5.07,5.07,0,0,0,.29,1.68,5.16,5.16,0,0,0,6.58,3.14,4,4,0,0,1,.85-.18,3.34,3.34,0,0,1,3.58,3.07c0,.34,0,.64,0,.93a12.07,12.07,0,0,1-12,12H3.33A3.33,3.33,0,0,1,0,89.92Zm25.39-14.1H6.67V86.59H30.88a5.36,5.36,0,0,0,4.42-2.33A11.84,11.84,0,0,1,25.39,75.82Z" transform="translate(0 -8.58)"/><path class="cls-1" d="M3.33,104.81A3.33,3.33,0,0,1,0,101.48V61.84a3.34,3.34,0,1,1,6.67,0v39.64a3.34,3.34,0,0,1-3.34,3.33Z" transform="translate(0 -8.58)"/></svg>