<svg id="图层_1" data-name="图层 1" xmlns="http://www.w3.org/2000/svg" viewBox="0 0 113.39 104.24"><defs><style>.cls-1{fill:#bfcbd9;}</style></defs><title>vip登记</title><path class="cls-1" d="M111,35.88C108.51,33,92.87,14.54,86.9,8.1c-1.84-2-3.2-3.37-6-3.47s-48.24,0-48.24,0C31.07,4.63,29.08,5,26.5,8c-6,7-19.48,22.48-24,27.9-3.09,3.57-3.47,8.65,0,13.88,7.41,8.62,27.78,32,48.26,55.56,2.9,3.36,4.74,3.48,6,3.48s3.07-.06,6-3.48C83.06,82,102.52,59.69,111,49.77A11.41,11.41,0,0,0,111,35.88ZM105,46.3c-6.79,7.92-27.22,30.62-43.4,49.32-2.37,2.73-3.8,2.77-4.81,2.77s-2.49-.1-4.81-2.77C35.63,76.75,14.4,53.2,8.5,46.3c-1.64-1.69-1.61-4.53,0-6.95C12.13,35,24.81,20.63,29.6,15.05c3.56-4.15,6.67-3.48,7.92-3.48H76c4.62,0,5.72,1,7.86,3.48C88.5,20.36,103,37,105,39.35A5.84,5.84,0,0,1,105,46.3Z" transform="translate(0 -4.57)"/><path class="cls-1" d="M56.76,84.64c-5.28-7.08-24-29.81-28.77-36.31l-.37-.46c-.82-1.1-1.56-1.62-3.56-1.62H23.8V41.36H34.4c.32,0,.39,0,.6.34L56.7,69.61,78.44,41.77c.28-.42.38-.42.67-.42H89.66v4.9h-.24c-2,0-2.74.52-3.56,1.63-.09.1-.17.23-.3.37C80.74,54.81,62,77.56,56.76,84.64Z" transform="translate(0 -4.57)"/></svg>