<svg id="图层_1" data-name="图层 1" xmlns="http://www.w3.org/2000/svg" viewBox="0 0 113.39 106.49"><defs><style>.cls-1{fill:#bfcbd9;}</style></defs><title>预警阈值</title><path class="cls-1" d="M90.44,101l0-53.95a34.13,34.13,0,0,0-10.1-24.27,33.76,33.76,0,0,0-24.11-10.1A34.5,34.5,0,0,0,21.89,47l.05,53.93-9.15,0L12.7,47a43,43,0,0,1,3.44-16.94A43.81,43.81,0,0,1,39.32,6.89,43.1,43.1,0,0,1,56.25,3.45,42.28,42.28,0,0,1,73,6.89,43.81,43.81,0,0,1,96.19,30.07,42.91,42.91,0,0,1,99.64,47v53.94Z" transform="translate(0 -3.45)"/><path class="cls-1" d="M108.79,109.94H4.6a4.6,4.6,0,0,1-.16-9.2H108.62a4.6,4.6,0,1,1,.17,9.2ZM70.7,56.83H59V31.42L42.38,62.62h12.1V86.87Z" transform="translate(0 -3.45)"/></svg>