<?xml version="1.0" encoding="utf-8"?>
<!-- Generator: Adobe Illustrator 23.1.0, SVG Export Plug-In . SVG Version: 6.00 Build 0)  -->
<svg version="1.1" id="图层_1" xmlns="http://www.w3.org/2000/svg" xmlns:xlink="http://www.w3.org/1999/xlink" x="0px" y="0px"
	 viewBox="0 0 113.4 113.2" style="enable-background:new 0 0 113.4 113.2;" xml:space="preserve">
<style type="text/css">
	.st0{fill:#FFFFFF;}
</style>
<title>看板管理</title>
<path class="st0" d="M28.4,104.7h56.3c3.1-0.1,5.7,1.8,5.8,4.1s-2.3,4.3-5.4,4.4H28.4c-3.1,0.1-5.7-1.8-5.8-4.1s2.3-4.3,5.4-4.4
	H28.4z"/>
<path class="st0" d="M99.2,0h-85C6.4,0,0,5.8,0,13v61.8c0,7.2,6.4,13,14.2,13h85c7.8,0,14.2-5.9,14.2-13V13C113.4,5.8,107,0,99.2,0z
	 M104.3,71.2c0,4.4-3.2,7.3-7.9,7.3H17c-4.8,0-7.9-2.9-7.9-7.3V16.6c0-4.4,3.2-7.3,7.9-7.3h79.4c4.8,0,7.9,2.9,7.9,7.3V71.2z"/>
<path class="st0" d="M59.5,55.5c-1.6,0.1-3.1-0.5-4.3-1.5l-9.2-6.8l-4.3,3.4c-2.6,1.9-6,1.9-8.6,0c-1.9-1.3-2.3-3.8-1.1-5.7
	c0.3-0.4,0.7-0.8,1.1-1.1l8.6-6.8c2.5-1.9,5.9-1.9,8.4-0.1l0.2,0.2l8.6,6.8l13-10.2c2.6-1.9,6.1-1.9,8.6,0c1.9,1.3,2.3,3.8,1.1,5.7
	c-0.3,0.4-0.7,0.8-1.1,1.1L63.2,54C62.5,55,60.7,55.5,59.5,55.5z"/>
</svg>
