<svg id="图层_1" data-name="图层 1" xmlns="http://www.w3.org/2000/svg" viewBox="0 0 113.39 113.49"><defs><style>.cls-1{fill:#bfcbd9;}</style></defs><title>重金属检测管理</title><path class="cls-1" d="M50.83,66.3a10.62,10.62,0,0,1-6.21-1.67L5.23,40.52a8.77,8.77,0,0,1-4.06-7.41,8.25,8.25,0,0,1,4.06-7.4L44.6,1.61C48-.54,53.67-.54,57.26,1.61l39.37,24.1a8.24,8.24,0,0,1,4.05,7.4,8.25,8.25,0,0,1-4.05,7.41L57.26,64.61a12.34,12.34,0,0,1-6.43,1.69M50,80.86A9,9,0,0,1,45.82,80L8.65,57.16H.24a7.84,7.84,0,0,0,4.08,7L43.89,88.35A13.46,13.46,0,0,0,50.12,90M50,101a9.45,9.45,0,0,1-4.43-.89L7.67,76.85H0a8.24,8.24,0,0,0,4.08,7.42L43.65,108.5a13.42,13.42,0,0,0,6.23,1.69m34.51-18.8a5.12,5.12,0,0,1-5.14-4.88,4.93,4.93,0,0,1,5.14-4.87,4.88,4.88,0,1,1,0,9.75Zm0-15.65A10.78,10.78,0,1,0,95.16,86.51,10.68,10.68,0,0,0,84.39,75.74Zm22.83,14.12a10.83,10.83,0,0,0-6.94,3.59,11.26,11.26,0,0,0-3.34,8,11.48,11.48,0,0,0,.51,3.33l-4.88,2.57c-.51-.51-1.28-1-2.06-1.8-2.31-1.53-4.37-2.57-6.41-2.57a10.29,10.29,0,0,0-6.4,2.57,12.32,12.32,0,0,0-2.07,1.8L71,104.74a11.1,11.1,0,0,0,.51-3.33,10.28,10.28,0,0,0-3.34-8,12.89,12.89,0,0,0-6.94-3.59A14.94,14.94,0,0,1,61,86.27c0-1,.27-2.57.27-3.59a10.83,10.83,0,0,0,6.94-3.59,11.26,11.26,0,0,0,3.34-8A11.48,11.48,0,0,0,71,67.8L76.17,65a13.61,13.61,0,0,0,2.06,1.53,11.61,11.61,0,0,0,6.4,2.3A11.53,11.53,0,0,0,91,66.52c.78-.51,1.29-1,2.06-1.53L98,67.56a11.09,11.09,0,0,0-.51,3.35,10.34,10.34,0,0,0,3.32,8,12.93,12.93,0,0,0,6.94,3.59,14.94,14.94,0,0,1,.27,3.59c-.27,1.51-.53,2.79-.78,3.81Zm5.66-9a5,5,0,0,0-1.29-2.57,3.29,3.29,0,0,0-2.57-1h-.27a5.81,5.81,0,0,1-5.89-5.89,6.2,6.2,0,0,1,.51-2.31,4.51,4.51,0,0,0-1.53-5.39L94.9,59.85h-.27a4.14,4.14,0,0,0-1.79-.27,5.05,5.05,0,0,0-3.59,1.53c-1,1-3.35,2.82-4.62,2.82-1.52,0-3.59-1.53-4.87-2.82a4.34,4.34,0,0,0-3.59-1.53,4.18,4.18,0,0,0-1.8.27h-.26L66.92,63.7a4.51,4.51,0,0,0-1.53,5.39,4.27,4.27,0,0,1,.51,2.31A5.81,5.81,0,0,1,60,77.29h-.27a3.24,3.24,0,0,0-2.3,1,6.13,6.13,0,0,0-1.29,2.57,54,54,0,0,0-.51,5.66c0,2.32.51,5.14.51,5.65a5,5,0,0,0,1.29,2.57,3.07,3.07,0,0,0,2.3,1H60a5.8,5.8,0,0,1,5.89,5.9,6.19,6.19,0,0,1-.51,2.3,4.51,4.51,0,0,0,1.53,5.39l6.94,3.86a4.33,4.33,0,0,0,1.8.26A5.07,5.07,0,0,0,79.25,112c1-1,3.35-2.81,4.87-2.81S88,110.94,89,112a4.69,4.69,0,0,0,3.59,1.53,4.33,4.33,0,0,0,1.8-.26h.26l7.19-3.86a4.51,4.51,0,0,0,1.53-5.39,4.2,4.2,0,0,1-.51-2.3,5.8,5.8,0,0,1,5.89-5.9H109a3.39,3.39,0,0,0,2.57-1,6.13,6.13,0,0,0,1.29-2.57,41.17,41.17,0,0,0,.51-5.65A46.7,46.7,0,0,0,112.88,80.88Z" transform="translate(0 0)"/></svg>