<svg id="图层_1" data-name="图层 1" xmlns="http://www.w3.org/2000/svg" viewBox="0 0 113.38 113.39"><defs><style>.cls-1{fill:#bfcbd9;}</style></defs><title>农资登记</title><path class="cls-1" d="M111.52,73l-7.18-7.18a6.35,6.35,0,0,0-9,0l0,0L76.89,84.3,64,97.22v12.32a3.87,3.87,0,0,0,3.84,3.85h12.3L93,100.46,111.52,82h0a6.36,6.36,0,0,0,0-9Zm-8.08,6.28L77,105.77H71.59v-5.4L98.06,73.91h0a2.54,2.54,0,0,1,3.59,0l1.79,1.79h0a2.54,2.54,0,0,1,0,3.59Z" transform="translate(-0.01 0)"/><path class="cls-1" d="M99,56.69a3.81,3.81,0,0,1-3.81-3.8V10.15a2.54,2.54,0,0,0-2.54-2.54H10.18a2.54,2.54,0,0,0-2.54,2.54v93.09a2.54,2.54,0,0,0,2.54,2.54H49a3.81,3.81,0,0,1,0,7.61H6.37A6.34,6.34,0,0,1,0,107.07V6.34A6.34,6.34,0,0,1,6.35,0H96.42a6.34,6.34,0,0,1,6.34,6.34V52.89A3.8,3.8,0,0,1,99,56.69Z" transform="translate(-0.01 0)"/><path class="cls-1" d="M19.16,38.28A3.81,3.81,0,0,1,23,34.47H79.83a3.81,3.81,0,0,1,.39,7.61,2.54,2.54,0,0,1-.39,0H23a3.79,3.79,0,0,1-3.85-3.75Z" transform="translate(-0.01 0)"/><path class="cls-1" d="M65.49,60.49H23a3.8,3.8,0,0,1-3.8-3.8h0a3.8,3.8,0,0,1,3.8-3.8H65.49a3.8,3.8,0,0,1,3.8,3.8h0a3.8,3.8,0,0,1-3.8,3.8Z" transform="translate(-0.01 0)"/><path class="cls-1" d="M23,78.9a3.81,3.81,0,0,1-.39-7.61,2.54,2.54,0,0,1,.39,0H51a3.81,3.81,0,0,1,.39,7.61H23Z" transform="translate(-0.01 0)"/></svg>