<svg id="图层_1" data-name="图层 1" xmlns="http://www.w3.org/2000/svg" viewBox="0 0 113.41 113.13"><defs><style>.cls-1{fill:#bfcbd9;}</style></defs><title>物联设备</title><path class="cls-1" d="M28.9,80.55H39.3a3.18,3.18,0,0,0,0-6.36H28.9A22.51,22.51,0,0,1,26,29.34l2-.25.6-2a29.43,29.43,0,0,1,56.24,0l.6,2,2,.27a22.51,22.51,0,0,1-3,44.82h-10a3.18,3.18,0,1,0,0,6.36h10.1A28.88,28.88,0,0,0,90.4,23.38a35.78,35.78,0,0,0-67.12,0A28.87,28.87,0,0,0,28.9,80.57Z" transform="translate(-0.01 0)"/><path class="cls-1" d="M96.89,90.8a9.6,9.6,0,0,0-9,6.4H69.38a12.74,12.74,0,0,0-9.14-9.14V68.74H84a10.63,10.63,0,0,0,0-21.26H30.16a10.63,10.63,0,0,0,0,21.26H53.87V88.05a12.74,12.74,0,0,0-9.14,9.14H26a9.59,9.59,0,1,0,0,6.37H44.7a12.73,12.73,0,0,0,24.66,0H87.83A9.59,9.59,0,1,0,96.89,90.8Zm-71-32.67a4.27,4.27,0,0,1,4.27-4.27H84a4.27,4.27,0,0,1,0,8.53H30.16a4.3,4.3,0,0,1-4.28-4.26ZM57,106.74a6.37,6.37,0,1,1,6.37-6.37h0A6.36,6.36,0,0,1,57,106.74h0Z" transform="translate(-0.01 0)"/></svg>