<svg id="图层_1" data-name="图层 1" xmlns="http://www.w3.org/2000/svg" viewBox="0 0 113.63 113.65"><defs><style>.cls-1{fill:#bfcbd9;}</style></defs><title>物联网配置</title><path class="cls-1" d="M70,32.71a3.71,3.71,0,0,0-5.23,0l-8,8-8-8a3.69,3.69,0,0,0-5.22,0v0L22.2,54a3.61,3.61,0,0,0-1.08,2.61,3.69,3.69,0,0,0,1.08,2.62L43.45,80.43a3.72,3.72,0,0,0,5.23,0l8-8,8,8a3.68,3.68,0,0,0,5.21,0h0L91.22,59.18a3.77,3.77,0,0,0,1.07-2.62A3.68,3.68,0,0,0,91.22,54ZM67.33,72.59l-7.74-7.72a3.58,3.58,0,0,0-.26-.28,1.62,1.62,0,0,0-.28-.25L48.71,54a3.7,3.7,0,0,0-5.23,5.23l8,8-5.4,5.41-16-16,16-16,8,8L64.72,59.18A3.72,3.72,0,0,0,70,54l-8-8,5.41-5.42,16,16Z" transform="translate(0.25 0.26)"/><path class="cls-1" d="M108.93,34.5a56.8,56.8,0,1,0,4.46,22.06A56.82,56.82,0,0,0,108.93,34.5ZM91.57,91.43A49.31,49.31,0,0,1,21.84,21.7,49.31,49.31,0,0,1,91.57,91.43Z" transform="translate(0.25 0.26)"/></svg>