<svg id="图层_1" data-name="图层 1" xmlns="http://www.w3.org/2000/svg" viewBox="0 0 113.42 93.26"><defs><style>.cls-1{fill:#bfcbd9;}</style></defs><title>基地管理</title><path class="cls-1" d="M.37,37.62a4.57,4.57,0,0,0,6,2.48h0L57.43,18.86a4.57,4.57,0,0,0-3.51-8.44L2.83,31.63a4.56,4.56,0,0,0-2.47,6Z" transform="translate(0.04 -10.06)"/><path class="cls-1" d="M113,38.41a4.56,4.56,0,0,1-6,2.47h0l-53-22a4.57,4.57,0,1,1,3.51-8.44l53,22a4.57,4.57,0,0,1,2.48,6v0ZM61.78,100.5a4.59,4.59,0,0,1-6,2.47h0l-53-22a4.57,4.57,0,1,1,3.51-8.44l53,22a4.55,4.55,0,0,1,2.51,5.92Z" transform="translate(0.04 -10.06)"/><path class="cls-1" d="M53.38,100.48a4.58,4.58,0,0,0,6,2.47h0l51.19-21.28a4.57,4.57,0,0,0-3.51-8.44L55.85,94.5A4.58,4.58,0,0,0,53.38,100.48Zm8.4-19.66a4.58,4.58,0,0,1-6,2.47h0l-53-22a4.58,4.58,0,0,1,3.51-8.45l53,22a4.56,4.56,0,0,1,2.51,5.94Z" transform="translate(0.04 -10.06)"/><path class="cls-1" d="M53.38,80.79a4.58,4.58,0,0,0,6,2.47h0L110.55,62A4.58,4.58,0,0,0,107,53.55L55.85,74.82a4.56,4.56,0,0,0-2.48,6v0Zm8.4-21.05a4.59,4.59,0,0,1-6,2.47h0l-53-22a4.57,4.57,0,1,1,3.51-8.44h0l53,22a4.56,4.56,0,0,1,2.5,5.94Z" transform="translate(0.04 -10.06)"/><path class="cls-1" d="M53.38,59.72a4.6,4.6,0,0,0,6,2.46l51.19-21.27a4.57,4.57,0,0,0-3.51-8.44L55.85,53.74a4.57,4.57,0,0,0-2.48,6v0Z" transform="translate(0.04 -10.06)"/></svg>