<svg id="图层_1" data-name="图层 1" xmlns="http://www.w3.org/2000/svg" viewBox="0 0 113.35 113.39"><defs><style>.cls-1{fill:#bfcbd9;}</style></defs><title>种植批次管理</title><path class="cls-1" d="M84.83,57.23a28.35,28.35,0,1,0,28.35,28.35h0A28.08,28.08,0,0,0,85.37,57.23Zm0,50.46a22.11,22.11,0,1,1,22.11-22.11A22.11,22.11,0,0,1,84.83,107.69ZM21.94,82.17H50.29a23.4,23.4,0,0,0,.54,6.24H21.94a3.26,3.26,0,0,1-3.4-3.12V85C19.11,83.88,20.24,82.17,21.94,82.17Zm0-12.47a3.4,3.4,0,0,1,0-6.8H56.52a23.65,23.65,0,0,0-4,6.24H21.94Zm0-37.41c-1.7,0-2.83-1.71-2.83-3.41a3.26,3.26,0,0,1,3.11-3.4,1.4,1.4,0,0,1,.29,0H35a3.41,3.41,0,0,1,0,6.81ZM69,47.59A3.28,3.28,0,0,1,65.87,51H21.94a3.4,3.4,0,0,1,0-6.8H66.16C67.86,44.76,69,45.89,69,47.59Z" transform="translate(0.17 -0.54)"/><path class="cls-1" d="M88.27,51.56V33.42L54.83.54H12.3A12.58,12.58,0,0,0-.17,13v87.87a12.73,12.73,0,0,0,12.42,13H65.59a33.11,33.11,0,0,1-6.23-6.23H12.3a6.3,6.3,0,0,1-6.23-6.24V13a6.4,6.4,0,0,1,1.7-4.54,6.39,6.39,0,0,1,4.53-1.7h38V38.52H82V51A25.15,25.15,0,0,1,88.27,51.56ZM56.52,32.29V12.44L76.37,31.72ZM88.27,90.11H82V83.88h6.24Zm12.47,0H94.51V83.88h6.23Z" transform="translate(0.17 -0.54)"/><path class="cls-1" d="M76.37,90.11H70.13V83.88h6.24Z" transform="translate(0.17 -0.54)"/></svg>