<svg id="图层_1" data-name="图层 1" xmlns="http://www.w3.org/2000/svg" viewBox="0 0 113.39 85.02"><defs><style>.cls-1{fill:#bfcbd9;}</style></defs><title>看板配置</title><path class="cls-1" d="M73.16,38.81H14.36a2.84,2.84,0,0,1,0-5.67h58.8a2.84,2.84,0,0,1,0,5.67ZM60.3,48.53H14.36a2.84,2.84,0,0,1,0-5.67H60.3a2.84,2.84,0,0,1,0,5.67ZM15.77,29.09H14.36a2.84,2.84,0,0,1,0-5.67h1.41a2.84,2.84,0,0,1,0,5.67Zm12.86,0h-1.4a2.84,2.84,0,1,1,0-5.67h1.4a2.84,2.84,0,1,1,0,5.67Zm12.7,0H39.92a2.84,2.84,0,0,1,0-5.67h1.41a2.84,2.84,0,0,1,0,5.67ZM91.5,48.53H70.64a2.84,2.84,0,0,1,0-5.67H91.49a2.84,2.84,0,0,1,0,5.67ZM76,90.55a2.82,2.82,0,0,1-2.83-2.83V58.08a2.84,2.84,0,0,1,5.67,0V87.72A2.84,2.84,0,0,1,76,90.55Zm22.42,0a2.82,2.82,0,0,1-2.83-2.83V58.08a2.83,2.83,0,0,1,5.66,0V87.72A2.82,2.82,0,0,1,98.4,90.55Zm-11.14,0a2.82,2.82,0,0,1-2.83-2.83v-23a2.84,2.84,0,0,1,5.67,0v23A2.83,2.83,0,0,1,87.26,90.55Zm-22.57,0a2.82,2.82,0,0,1-2.83-2.83V67.33a2.84,2.84,0,0,1,5.67,0V87.72A2.83,2.83,0,0,1,64.69,90.55ZM32.23,74.88A2.83,2.83,0,0,1,29.4,72V54.48a2.84,2.84,0,0,1,5.67,0V72a2.84,2.84,0,0,1-2.84,2.84Z" transform="translate(0 -14.09)"/><path class="cls-1" d="M49.64,74.88H32.23a2.84,2.84,0,0,1,0-5.67h17.4a2.84,2.84,0,1,1,0,5.67Z" transform="translate(0 -14.09)"/><path class="cls-1" d="M103.94,99.1H9.45A9.46,9.46,0,0,1,0,89.65V23.54a9.46,9.46,0,0,1,9.45-9.45h94.49a9.46,9.46,0,0,1,9.45,9.45v66.1a9.46,9.46,0,0,1-9.45,9.46ZM9.45,21.17a2.37,2.37,0,0,0-2.36,2.37v66.1A2.36,2.36,0,0,0,9.45,92h94.49a2.36,2.36,0,0,0,2.36-2.36V23.54a2.37,2.37,0,0,0-2.36-2.37Z" transform="translate(0 -14.09)"/><path class="cls-1" d="M32.23,92.12A20.23,20.23,0,1,1,52.47,71.89,20.25,20.25,0,0,1,32.23,92.12Zm0-34.8A14.56,14.56,0,1,0,46.8,71.88,14.57,14.57,0,0,0,32.23,57.32Z" transform="translate(0 -14.09)"/></svg>