<svg id="图层_1" data-name="图层 1" xmlns="http://www.w3.org/2000/svg" viewBox="0 0 113.39 113.19"><defs><style>.cls-1{fill:#34bfa3;}</style></defs><title>看板管理</title><path class="cls-1" d="M28.35,104.66H84.62c3.11-.09,5.72,1.75,5.84,4.11s-2.31,4.33-5.41,4.42H28.35c-3.11.09-5.72-1.75-5.84-4.1s2.31-4.34,5.41-4.43Z"/><path class="cls-1" d="M99.23,0h-85C6.38,0,0,5.85,0,13V74.78c0,7.16,6.38,13,14.18,13h85c7.8,0,14.19-5.86,14.19-13V13C113.42,5.85,107,0,99.23,0Zm5.07,71.19c0,4.37-3.17,7.28-7.93,7.28H17c-4.76,0-7.93-2.91-7.93-7.28V16.6c0-4.37,3.17-7.28,7.93-7.28H96.37c4.76,0,7.93,2.91,7.93,7.28Z"/><path class="cls-1" d="M59.47,55.47A6.42,6.42,0,0,1,55.13,54l-9.2-6.76-4.34,3.41a7.36,7.36,0,0,1-8.62,0,4.1,4.1,0,0,1,0-6.77l8.62-6.76A7.16,7.16,0,0,1,50,37l.19.15,8.63,6.76,13-10.17a7.32,7.32,0,0,1,8.62,0,4.09,4.09,0,0,1,0,6.76L63.17,54C62.55,55,60.7,55.47,59.47,55.47Z"/></svg>