<svg id="图层_1" data-name="图层 1" xmlns="http://www.w3.org/2000/svg" viewBox="0 0 113.56 113.39"><title>农作物管理2</title><path d="M100.15,51.63a4.13,4.13,0,0,1-4.21-4.05V9.11a1,1,0,0,0-1.06-1H9.3a1,1,0,0,0-1.05,1v95.16a1,1,0,0,0,1.05,1H47.35a4.05,4.05,0,1,1,0,8.1H4a4.14,4.14,0,0,1-4.22-4V4.05A4.14,4.14,0,0,1,4,0h96.11a4.13,4.13,0,0,1,4.21,4.05V47.58A4.13,4.13,0,0,1,100.15,51.63Z" transform="translate(0.18 0)"/><path d="M19.29,27h61.8a4.2,4.2,0,1,1,0,8.4H19.29a4.2,4.2,0,1,1,0-8.4Z" transform="translate(0.18 0)"/><path d="M19.94,54.06H47.76a4.2,4.2,0,1,1,0,8.4H19.94a4.2,4.2,0,0,1,0-8.4Z" transform="translate(0.18 0)"/><path d="M19.94,81.09H47.76a4.2,4.2,0,1,1,0,8.4H19.94a4.2,4.2,0,0,1,0-8.4Z" transform="translate(0.18 0)"/><path d="M59.83,54.06h5.78a4.2,4.2,0,1,1,0,8.4H59.83a4.2,4.2,0,0,1,0-8.4Z" transform="translate(0.18 0)"/><path d="M109.17,87.85a5.32,5.32,0,0,1,4.22-5.2,26,26,0,0,0-3-8,5.31,5.31,0,0,1-7-7.79,25.78,25.78,0,0,0-9.94-4.42,5.32,5.32,0,0,1-10.49,0,25.78,25.78,0,0,0-10,4.39,5.32,5.32,0,0,1-7.1,7.79,25.59,25.59,0,0,0-3.08,8,5.32,5.32,0,0,1,0,10.45,25.53,25.53,0,0,0,3.52,8.63,5.22,5.22,0,0,1,2.56-.66,5.32,5.32,0,0,1,4.57,8,25.74,25.74,0,0,0,9.52,4,5.32,5.32,0,0,1,10.4,0A25.69,25.69,0,0,0,102.8,109a5.32,5.32,0,0,1,7.07-7.37,25.52,25.52,0,0,0,3.49-8.6A5.31,5.31,0,0,1,109.17,87.85ZM88.11,96.58a8.73,8.73,0,1,1,8.73-8.73A8.72,8.72,0,0,1,88.11,96.58Z" transform="translate(0.18 0)"/></svg>