<svg id="图层_1" data-name="图层 1" xmlns="http://www.w3.org/2000/svg" viewBox="0 0 113.39 113.39"><defs><style>.cls-1{fill:#bfcbd9;}</style></defs><title>数据缺失</title><path class="cls-1" d="M88.52,56.4a24.87,24.87,0,1,0,24.87,24.86A24.86,24.86,0,0,0,88.52,56.4ZM99.93,90.09l-2.54,2.54a1.22,1.22,0,0,1-1.7,0L88.5,85.44l-7.19,7.19a1.21,1.21,0,0,1-1.69,0l-2.54-2.54a1.19,1.19,0,0,1,0-1.69l7.19-7.19L77.08,74a1.2,1.2,0,0,1,0-1.7l2.54-2.54a1.21,1.21,0,0,1,1.69,0L88.5,77l7.19-7.2a1.22,1.22,0,0,1,1.7,0l2.54,2.54a1.22,1.22,0,0,1,0,1.7l-7.2,7.19,7.2,7.19A1.21,1.21,0,0,1,99.93,90.09Z" transform="translate(0 0)"/><rect class="cls-1" y="70.67" width="18.81" height="42.72" rx="2.83"/><rect class="cls-1" x="24.75" width="18.81" height="113.39" rx="2.83"/><path class="cls-1" d="M88.89,53.44a28.59,28.59,0,0,1,4.16.31V10.94a2.42,2.42,0,0,0-2.41-2.41h-14a2.42,2.42,0,0,0-2.41,2.41V57.6A27.81,27.81,0,0,1,88.89,53.44Z" transform="translate(0 0)"/><path class="cls-1" d="M88.89,109.25a27.8,27.8,0,0,1-14.65-4.15V111a2.42,2.42,0,0,0,2.41,2.41h14A2.42,2.42,0,0,0,93.05,111v-2A28.59,28.59,0,0,1,88.89,109.25Z" transform="translate(0 0)"/><path class="cls-1" d="M61.14,81.34a27.8,27.8,0,0,1,7.18-18.68V49.1a2.41,2.41,0,0,0-2.4-2.41h-14a2.42,2.42,0,0,0-2.41,2.41V111a2.42,2.42,0,0,0,2.41,2.41h14a2.42,2.42,0,0,0,2.4-2.41V100A27.78,27.78,0,0,1,61.14,81.34Z" transform="translate(0 0)"/></svg>