<svg id="图层_1" data-name="图层 1" xmlns="http://www.w3.org/2000/svg" viewBox="0 0 113.39 113.39"><defs><style>.cls-1{fill:#bfcbd9;}</style></defs><title>监测数据</title><path class="cls-1" d="M108.93,34.62a56.84,56.84,0,1,0,4.46,22.07A56.57,56.57,0,0,0,108.93,34.62ZM105.77,53H85.5A29.07,29.07,0,0,0,60.43,27.89V7.61A49.3,49.3,0,0,1,105.77,53ZM53,47.49l-8.39-8.63A21.32,21.32,0,0,1,53,35.45ZM47.85,53H35.45a21.46,21.46,0,0,1,3.76-8.89ZM53,60.43V77.94A21.61,21.61,0,0,1,35.45,60.43Zm7.47,0H77.94A21.63,21.63,0,0,1,60.43,77.94Zm0-7.47V35.45A21.61,21.61,0,0,1,77.94,53ZM53,7.61V27.89A28.62,28.62,0,0,0,39.3,33.43L25.19,18.91A49,49,0,0,1,53,7.61ZM19.83,24.11,33.94,38.64a28.75,28.75,0,0,0-6,14.32H7.61A49.07,49.07,0,0,1,19.83,24.11ZM7.61,60.43H27.89A29.07,29.07,0,0,0,53,85.5v20.27A49.3,49.3,0,0,1,7.61,60.43Zm52.82,45.34V85.5A29.07,29.07,0,0,0,85.5,60.43h20.27A49.29,49.29,0,0,1,60.43,105.77Z"/></svg>