<svg id="图层_1" data-name="图层 1" xmlns="http://www.w3.org/2000/svg" viewBox="0 0 113.39 113.39"><defs><style>.cls-1{fill:#bfcbd9;}</style></defs><title>设备管理</title><path class="cls-1" d="M92.6,113.39H20.79A20.82,20.82,0,0,1,0,92.6V20.79A20.82,20.82,0,0,1,20.79,0H92.6a20.82,20.82,0,0,1,20.79,20.79V92.6A20.83,20.83,0,0,1,92.6,113.39ZM21.72,5.15A16.57,16.57,0,0,0,5.15,21.72h0v70a16.56,16.56,0,0,0,16.57,16.56h70a16.55,16.55,0,0,0,16.56-16.56V21.72A16.56,16.56,0,0,0,91.67,5.15Z"/><path class="cls-1" d="M89.22,46.55H87.37a31.47,31.47,0,0,0-1.82-4.37l1.32-1.32a8.69,8.69,0,0,0,.07-12.3l-.07-.07-2.06-2.06a8.91,8.91,0,0,0-12.37,0l-1.23,1.4A31.42,31.42,0,0,0,66.84,26V24.16a8.71,8.71,0,0,0-8.7-8.7H55.25a8.71,8.71,0,0,0-8.7,8.7V26a31.42,31.42,0,0,0-4.37,1.81l-1.32-1.32a8.91,8.91,0,0,0-12.37,0l-2.06,2.06a8.7,8.7,0,0,0-.07,12.31l.07.06,1.32,1.32a32.74,32.74,0,0,0-1.82,4.37H24.16a8.7,8.7,0,0,0-8.7,8.62v2.89a8.71,8.71,0,0,0,8.7,8.7H26a31.93,31.93,0,0,0,1.81,4.37l-1.32,1.32a8.7,8.7,0,0,0-.06,12.3l.06.07L28.57,87a8.91,8.91,0,0,0,12.37,0l1.32-1.32a31.42,31.42,0,0,0,4.37,1.81v1.86a8.7,8.7,0,0,0,8.62,8.61h2.89a8.7,8.7,0,0,0,8.7-8.7V87.37a32.52,32.52,0,0,0,4.37-1.82l1.32,1.32a8.91,8.91,0,0,0,12.37,0L87,84.81a8.74,8.74,0,0,0,0-12.36h0l-1.41-1.23a31.47,31.47,0,0,0,1.82-4.37h1.85a8.7,8.7,0,0,0,8.7-8.7V55.25A8.7,8.7,0,0,0,89.22,46.55ZM93.8,58.22a3.06,3.06,0,0,1-3,3.05H86.63a3,3,0,0,0-2.93,2.27,28.08,28.08,0,0,1-3,7.34,3.05,3.05,0,0,0,.45,3.71l3,3a3,3,0,0,1,0,4.12l-2.14,2.14a3.15,3.15,0,0,1-4.13,0l-3-3a3.05,3.05,0,0,0-3.71-.45,27.47,27.47,0,0,1-7.34,3,3,3,0,0,0-2.3,2.93V90.5a3.05,3.05,0,0,1-3.06,3H55.37a3,3,0,0,1-3-3h0V86.38a3.06,3.06,0,0,0-2.27-2.93,27.08,27.08,0,0,1-7.33-3,3.07,3.07,0,0,0-3.72.45l-3,3a3.15,3.15,0,0,1-4.13,0l-2.14-2.14a3,3,0,0,1,0-4.12l3-3a3.05,3.05,0,0,0,.45-3.71,27.28,27.28,0,0,1-3-7.34,3,3,0,0,0-2.93-2.31H23.09a3.05,3.05,0,0,1-3.47-2.57c0-.14,0-.29,0-.44v-3a3.05,3.05,0,0,1,3.06-3.05h4.12a3.07,3.07,0,0,0,2.93-2.31,27.94,27.94,0,0,1,3.05-7.34,3,3,0,0,0-.46-3.71l-3-3a3,3,0,0,1,0-4.12l2.14-2.15a3.13,3.13,0,0,1,4.12,0l3,3a3.05,3.05,0,0,0,3.71.45,27.94,27.94,0,0,1,7.34-3A3,3,0,0,0,51.87,27V22.84a3,3,0,0,1,2.83-3.26h3.52a3.06,3.06,0,0,1,3.05,3.06v4.12a3,3,0,0,0,2.31,2.93,27.6,27.6,0,0,1,7.34,3.05,3.06,3.06,0,0,0,3.71-.46l3-3a3.09,3.09,0,0,1,4.12,0l2.14,2.14a3,3,0,0,1,0,4.12l-3,3a3.06,3.06,0,0,0-.46,3.71,27.28,27.28,0,0,1,3,7.34,3.07,3.07,0,0,0,2.93,2.27h4.12a3,3,0,0,1,3,3.05v3l.21.25Z"/><path class="cls-1" d="M56.69,41.23a15.46,15.46,0,1,0,0,30.92h0a15.46,15.46,0,1,0,0-30.92Zm0,25.77a10.31,10.31,0,1,1,0-20.61h0a10.31,10.31,0,1,1,0,20.61Z"/></svg>