<svg id="图层_1" data-name="图层 1" xmlns="http://www.w3.org/2000/svg" viewBox="0 0 113.39 113.39"><defs><style>.cls-1{fill:#bfcbd9;}</style></defs><title>病虫害管理</title><path class="cls-1" d="M109.13,84.29A9.75,9.75,0,0,1,112.47,77a2.65,2.65,0,0,0,.56-3.33l-4.59-7.81a2.66,2.66,0,0,0-3.1-1.18,10.31,10.31,0,0,1-3.12.47,10.1,10.1,0,0,1-9.93-7.81A2.66,2.66,0,0,0,89.7,55.2H80.61A2.66,2.66,0,0,0,78,57.29a10.1,10.1,0,0,1-9.92,7.81A10.41,10.41,0,0,1,65,64.63a2.66,2.66,0,0,0-3.1,1.18l-4.58,7.81A2.66,2.66,0,0,0,57.83,77a9.75,9.75,0,0,1,.93,13.76,10.2,10.2,0,0,1-.93.93A2.67,2.67,0,0,0,57.28,95l4.58,7.81A2.66,2.66,0,0,0,65,104a10.69,10.69,0,0,1,3.13-.47A10.09,10.09,0,0,1,78,111.3a2.66,2.66,0,0,0,2.6,2.09h9.1a2.65,2.65,0,0,0,2.59-2.09,10.09,10.09,0,0,1,9.93-7.81,10.31,10.31,0,0,1,3.12.47,2.66,2.66,0,0,0,3.1-1.18L113,95a2.65,2.65,0,0,0-.56-3.33,9.77,9.77,0,0,1-3.34-7.35Zm-3.69,15.4a14.6,14.6,0,0,0-8.76.73,14.37,14.37,0,0,0-4.54,3,14,14,0,0,0-3.09,4.47,12.84,12.84,0,0,0-.5,1.35H81.76a11,11,0,0,0-.51-1.35,13.81,13.81,0,0,0-3.08-4.47,14.51,14.51,0,0,0-13.3-3.72l-3.4-5.79a14.36,14.36,0,0,0,1.84-2.41,13.93,13.93,0,0,0-1.84-16.8l3.4-5.79a14.43,14.43,0,0,0,13.3-3.72,13.81,13.81,0,0,0,3.08-4.47,11,11,0,0,0,.51-1.35h6.79a12.84,12.84,0,0,0,.5,1.35,14,14,0,0,0,3.09,4.47,14.37,14.37,0,0,0,4.54,3,14.6,14.6,0,0,0,8.76.73l3.4,5.79A14.21,14.21,0,0,0,107,77.1a13.88,13.88,0,0,0,0,14.39,14.84,14.84,0,0,0,1.85,2.41Z" transform="translate(0 0)"/><path class="cls-1" d="M85.15,71.83A12.47,12.47,0,1,0,97.62,84.3h0A12.48,12.48,0,0,0,85.15,71.83ZM91,90.17a8.33,8.33,0,1,1,2.43-5.88A8.32,8.32,0,0,1,91,90.17Z" transform="translate(0 0)"/><path class="cls-1" d="M58.15,54.51a3.43,3.43,0,0,0,3.63-3.22,2.8,2.8,0,0,0,0-.41V29.8A34.31,34.31,0,0,1,88.67,49.42c.73,2.19,2.91,2.91,5.09,1.46,2.18-.73,2.91-2.91,1.46-5.09L93,41.43a44.51,44.51,0,0,0,11.63-14.54c.73-1.45,0-3.63-1.45-5.09-1.45-.72-3.63,0-5.09,1.46-2.9,5.09-5.81,9.45-9.45,12.35-2.9-2.9-5.81-5.81-8.72-7.26,0-.73.73-.73.73-1.46,0-1.45.73-2.9.73-4.36A22.65,22.65,0,0,0,58.87,0c-12.35,0-24,10.9-24,23.26a9.3,9.3,0,0,0,.72,4.36c0,.73,0,.73.73.73a47.24,47.24,0,0,0-9.45,7.26c-3.63-2.9-6.54-7.26-8.72-11.62-1.45-2.19-3.63-2.91-5.09-1.46-2.18.73-2.9,2.91-1.45,4.36,2.91,5.82,6.54,10.91,11.63,14.54A36.54,36.54,0,0,0,16.7,58.15H3.63a3.63,3.63,0,1,0,0,7.26H17.44C18.17,70.5,18.9,75.59,21.08,80A43.89,43.89,0,0,0,7.27,96.67c-.73,1.45,0,3.63,1.45,5.09.73,0,.73.72,1.46.72a4,4,0,0,0,3.63-2.18c2.18-5.08,6.54-10.17,10.9-13.81a38.36,38.36,0,0,0,22.53,15.27H48a3.73,3.73,0,0,0,3.64-2.91c.72-2.18-.73-3.63-2.91-4.36C34.16,90.85,24,77,24,61.78c0-17.44,13.08-31.25,29.8-33.43V49.42C54.51,52.33,56,54.51,58.15,54.51Zm-16-31.25c0-8.72,7.26-15.26,16-15.26A14.89,14.89,0,0,1,73.41,22.53c0,.24,0,.49,0,.73v2.18a39.5,39.5,0,0,0-16-3.64,38,38,0,0,0-15.26,2.91c.73-.71,0-.71,0-1.45Z" transform="translate(0 0)"/></svg>