<svg id="图层_1" data-name="图层 1" xmlns="http://www.w3.org/2000/svg" viewBox="0 0 113.39 113.39"><defs><style>.cls-1{fill:#bfcbd9;}</style></defs><title>农事项目</title><path class="cls-1" d="M99.21,99.21l-5-5a7,7,0,0,1,5-2.09A7.09,7.09,0,0,0,106.3,85V14.17a7.08,7.08,0,0,0-7.09-7.08H28.35a7.08,7.08,0,0,0-7.09,7.08v.61a7,7,0,0,1-2.06,5l-5-5v-.61A14.18,14.18,0,0,1,28.35,0H99.21a14.18,14.18,0,0,1,14.18,14.17V85A14.17,14.17,0,0,1,99.21,99.21ZM7.09,28.35V99.21a7.08,7.08,0,0,0,7.08,7.09H85a7.09,7.09,0,0,0,7.09-7.09V28.35A7.09,7.09,0,0,0,85,21.26H14.17A7.08,7.08,0,0,0,7.09,28.35ZM85,14.17A14.17,14.17,0,0,1,99.21,28.35V99.21A14.17,14.17,0,0,1,85,113.39H14.17A14.18,14.18,0,0,1,0,99.21V28.35A14.18,14.18,0,0,1,14.17,14.17Z" transform="translate(0 0)"/><path class="cls-1" d="M17.72,28.35H60.24a3.54,3.54,0,1,1,0,7.08H17.72a3.54,3.54,0,1,1,0-7.08ZM81.5,35.43A3.54,3.54,0,1,1,85,31.89,3.54,3.54,0,0,1,81.5,35.43ZM7.09,42.52h85v7.09h-85Z" transform="translate(0 0)"/></svg>