<svg id="图层_1" data-name="图层 1" xmlns="http://www.w3.org/2000/svg" viewBox="0 0 113.39 113.39"><defs><style>.cls-1{fill:#bfcbd9;}</style></defs><title>预算统计</title><path class="cls-1" d="M108.59,113.39H4.85A4.79,4.79,0,0,1,0,108.66V4.72A4.79,4.79,0,0,1,4.85,0,4.78,4.78,0,0,1,9.68,4.72v99.22h98.91a4.73,4.73,0,1,1,0,9.45ZM41,82.91a4.84,4.84,0,0,1-3.86-2.17l-18-27.26A4.7,4.7,0,0,1,19,48.69a5,5,0,0,1,8.48-.31L39.41,66.71l5.12-18.52a4.73,4.73,0,0,1,2.66-3l20.94-9.45a4.87,4.87,0,0,1,6.23,2.08l8.4,14.55L99.23,8a4.79,4.79,0,0,1,3.68-3.16,4.9,4.9,0,0,1,4.62,1.63,4.65,4.65,0,0,1,.77,4.74l-20,54a4.89,4.89,0,0,1-8.74.71L68.14,46.2,53.22,52.87,45.69,79.46a4.81,4.81,0,0,1-3.91,3.41l-.77,0Z" transform="translate(-0.02)"/></svg>