<svg id="图层_1" data-name="图层 1" xmlns="http://www.w3.org/2000/svg" viewBox="0 0 113.39 113.39"><defs><style>.cls-1{fill:#bfcbd9;}</style></defs><title>财务管理</title><path class="cls-1" d="M109,34.5a56.81,56.81,0,1,0,4.46,22.07A56.38,56.38,0,0,0,109,34.5ZM91.59,91.43A49.3,49.3,0,0,1,21.87,21.7,49.3,49.3,0,0,1,91.59,91.43Z" transform="translate(-0.02 0.13)"/><path class="cls-1" d="M78.54,56.19H63.15V50.54h12a4.88,4.88,0,1,0,0-9.74h-5l7.38-7.2a4.73,4.73,0,0,0-.1-6.92,5.34,5.34,0,0,0-7.28.1h0L58,38.56,45.81,26.68a5.34,5.34,0,0,0-7.28-.09,4.71,4.71,0,0,0-.1,6.91l7.48,7.3h-5a4.88,4.88,0,1,0,0,9.74h12v5.75H37.5a4.87,4.87,0,1,0,0,9.73H52.89v17a5.14,5.14,0,0,0,10.26,0V65.93H78.54a4.88,4.88,0,1,0,0-9.74Z" transform="translate(-0.02 0.13)"/></svg>