<svg id="图层_1" data-name="图层 1" xmlns="http://www.w3.org/2000/svg" viewBox="0 0 113.39 113.39"><title>实际统计</title><path d="M85,56.76A28.38,28.38,0,0,1,64.94,8.31a28.38,28.38,0,1,1,40.13,40.13A28.19,28.19,0,0,1,85,56.76ZM85,8.11a20.27,20.27,0,1,0,20.27,20.27A20.29,20.29,0,0,0,85,8.11Z"/><path d="M82.2,39.51v-4.6H76.71c-1.19,0-1.79-.54-1.79-1.63.1-.89.7-1.44,1.79-1.64H82.2V29.12H76.71c-1.19,0-1.79-.54-1.79-1.63.1-.89.7-1.44,1.79-1.64h3.11l-4.75-6.68a1.65,1.65,0,0,1-.59-1.63,2.79,2.79,0,0,1,2.82-2.82,3.36,3.36,0,0,1,2.23,1.19L85,23.78l5.49-7.87a3,3,0,0,1,2.23-1.19,2.93,2.93,0,0,1,2.82,2.82A2.22,2.22,0,0,1,95,19.17l-4.75,6.68h3.11a2.08,2.08,0,0,1,1.79,1.64,1.6,1.6,0,0,1-1.79,1.63H87.84v2.52h5.49a2.08,2.08,0,0,1,1.79,1.64,1.6,1.6,0,0,1-1.79,1.63H87.84v4.6C87.74,41.2,86.8,42,85,42S82.2,41.2,82.2,39.51ZM4.05,113.39a4.06,4.06,0,0,1-4-4.06V20.14a4.06,4.06,0,0,1,8.11,0v89.19A4.06,4.06,0,0,1,4.05,113.39Z"/><path d="M0,109.33a4.05,4.05,0,0,1,4.05-4H93.24a4.06,4.06,0,1,1,0,8.11H4.05A4.06,4.06,0,0,1,0,109.33ZM24.32,97.17h-8.1V76.9a4,4,0,0,1,8.1,0Zm24.33,0H40.54V36.36a4.06,4.06,0,0,1,8.11,0Zm24.32,0H64.86V60.68a4.06,4.06,0,0,1,8.11,0Z"/></svg>