<svg id="图层_1" data-name="图层 1" xmlns="http://www.w3.org/2000/svg" viewBox="0 0 113.38 113.35"><defs><style>.cls-1{fill:#bfcbd9;}</style></defs><title>厂商管理2</title><path class="cls-1" d="M44.65,53.79H7.22A7.16,7.16,0,0,1,0,46.7H0V9.33a7.14,7.14,0,0,1,7.2-7.1H44.65A7.16,7.16,0,0,1,52.2,9V46.33a7.13,7.13,0,0,1-6.79,7.45h-.76Zm0-44.44H7.58L8,46H44.65ZM85.31,55.63a7.25,7.25,0,0,1-5.25-2.13L59.26,33a7,7,0,0,1-.36-9.9L59,23l.26-.26L80,2.18A7.26,7.26,0,0,1,90.16,2l.27.26,20.73,20.51a7,7,0,0,1,.36,9.89.52.52,0,0,0-.1.11l-.26.26L90.43,53.5A7.29,7.29,0,0,1,85.31,55.63ZM65.23,28.16,85.31,47.61l19.94-19.45L85.31,8.07ZM44.65,113.35H7.22A7.16,7.16,0,0,1,0,106.26H0V68.62a7.14,7.14,0,0,1,7.2-7.1H44.65a7.17,7.17,0,0,1,7.55,6.74v37.35a7.13,7.13,0,0,1-6.49,7.71h0C45.34,113.35,45,113.36,44.65,113.35Zm0-44.44-37.07.35L8,105.89l36.64-.35ZM104,113.35H66.46a7.16,7.16,0,0,1-7.21-7.09h0V68.62a7.14,7.14,0,0,1,7.2-7.1H104a7.16,7.16,0,0,1,7.2,7.1h0v37a7.15,7.15,0,0,1-6.53,7.71Zm-.43-44.73L66.46,69l.43,36.63,36.64-.36Z" transform="translate(-0.01)"/></svg>