<svg id="图层_1" data-name="图层 1" xmlns="http://www.w3.org/2000/svg" viewBox="0 0 113.38 123.05"><defs><style>.cls-1{fill:#bfcbd9;}</style></defs><title>采收检测工单</title><path class="cls-1" d="M92.38,9.67H80.51v9.7H92.38a11.32,11.32,0,0,1,11.31,11.3V102a11.32,11.32,0,0,1-11.31,11.33H21A11.33,11.33,0,0,1,9.69,102.06V30.67A11.32,11.32,0,0,1,21,19.38H31.39V9.67H21a21,21,0,0,0-21,21V102a21,21,0,0,0,21,21H92.38a21,21,0,0,0,21-21V30.67A21,21,0,0,0,92.38,9.67Z" transform="translate(0 0.01)"/><path class="cls-1" d="M61.15,29.05H50.76a14.53,14.53,0,0,1,0-29H61.15a14.53,14.53,0,1,1,.76,29.05ZM50.76,9.67a4.83,4.83,0,1,0,0,9.66H61.15a4.83,4.83,0,1,0,0-9.66H50.76Z" transform="translate(0 0.01)"/><path class="cls-1" d="M45.9,49.88H25.09a4.85,4.85,0,1,1-.44-9.69H45.9a4.85,4.85,0,1,1,.44,9.69ZM57.19,70.56H25.09a4.85,4.85,0,1,1-.44-9.69H57.19a4.85,4.85,0,1,1,.44,9.69ZM79.65,91.27H25.09a4.85,4.85,0,1,1-.44-9.69,3.23,3.23,0,0,1,.44,0H79.65a4.85,4.85,0,1,1,.44,9.69A3.23,3.23,0,0,1,79.65,91.27Z" transform="translate(0 0.01)"/></svg>