<svg id="图层_1" data-name="图层 1" xmlns="http://www.w3.org/2000/svg" viewBox="0 0 113.39 82.46"><defs><style>.cls-1{fill:#bfcbd9;}</style></defs><title>采收检测标准</title><path class="cls-1" d="M103.43,15.33a10,10,0,0,1,10,10V87.83a10,10,0,0,1-10,10H10a10,10,0,0,1-10-10V25.3a10,10,0,0,1,10-10Zm-.34,10.31H10.32V87.49h92.77ZM61,39.37l.06.13,9,19.87,9.37-9.95a5.15,5.15,0,0,1,7.19-.3l.1.09A5.15,5.15,0,0,1,87,56.4l-.09.09L72.26,72.05a5.15,5.15,0,0,1-8.4-1.32l0-.1-7-15.53-5,13.34a5.16,5.16,0,0,1-8.33,2l-.08-.08-4.69-4.54L28,76.05a5.15,5.15,0,0,1-7.2-.06l-.09-.08a5.15,5.15,0,0,1,.06-7.2l.08-.09L35.12,54.91a5.14,5.14,0,0,1,7.06-.07l.09.08,2.63,2.54L51.54,39.8A5.15,5.15,0,0,1,61,39.37Z" transform="translate(-0.01 -15.33)"/></svg>