<svg id="图层_1" data-name="图层 1" xmlns="http://www.w3.org/2000/svg" viewBox="0 0 113.39 113.39"><defs><style>.cls-1{fill:#bfcbd9;}</style></defs><title>重金属检测项</title><path class="cls-1" d="M55.25,84.84A29.36,29.36,0,1,1,84.6,55.48,29.39,29.39,0,0,1,55.25,84.84Zm0-53.47A24.12,24.12,0,1,0,79.36,55.48,24.14,24.14,0,0,0,55.25,31.37Z" transform="translate(0 0)"/><path class="cls-1" d="M88.27,90.86a2.61,2.61,0,0,1-1.86-.77L74.76,78.44a2.62,2.62,0,0,1,3.71-3.71L90.12,86.39a2.62,2.62,0,0,1,0,3.7A2.59,2.59,0,0,1,88.27,90.86ZM56.73,65.53H45.58a2.62,2.62,0,1,1,0-5.24H56.73a2.62,2.62,0,1,1,0,5.24Zm8.18-14.86H45.58a2.62,2.62,0,1,1,0-5.24H64.91a2.62,2.62,0,1,1,0,5.24Z" transform="translate(0 0)"/><path class="cls-1" d="M56.69,113.39a56.65,56.65,0,1,1,53.75-38.61,57.68,57.68,0,0,1-2.2,5.55A3.94,3.94,0,0,1,101.09,77,44.62,44.62,0,0,0,103,72.27,48.8,48.8,0,1,0,75.41,101.8c.75-.31,1.49-.64,2.23-1a3.93,3.93,0,0,1,3.37,7.1c-.85.4-1.71.78-2.58,1.15A56.44,56.44,0,0,1,56.69,113.39Z" transform="translate(0 0)"/></svg>