<?xml version="1.0" encoding="utf-8"?>
<!-- Generator: Adobe Illustrator 23.1.0, SVG Export Plug-In . SVG Version: 6.00 Build 0)  -->
<svg version="1.1" id="图层_1" xmlns="http://www.w3.org/2000/svg" xmlns:xlink="http://www.w3.org/1999/xlink" x="0px" y="0px"
	 viewBox="0 0 113.6 113.6" style="enable-background:new 0 0 113.6 113.6;" xml:space="preserve">
<style type="text/css">
	.st0{fill:#FFFFFF;}
</style>
<title>物联网管理置</title>
<path class="st0" d="M70.2,33c-1.4-1.4-3.8-1.5-5.2,0c0,0,0,0,0,0l-8,8l-8-8c-1.4-1.4-3.8-1.4-5.2,0c0,0,0,0,0,0l0,0L22.4,54.2
	c-0.7,0.7-1.1,1.6-1.1,2.6c0,1,0.4,1.9,1.1,2.6l21.3,21.2c1.4,1.4,3.8,1.4,5.2,0l8-8l8,8c1.4,1.4,3.8,1.4,5.2,0l0,0l21.3-21.3
	c0.7-0.7,1.1-1.6,1.1-2.6c0-1-0.4-1.9-1.1-2.6L70.2,33z M67.6,72.8l-7.7-7.7c-0.1-0.1-0.2-0.2-0.3-0.3c-0.1-0.1-0.2-0.2-0.3-0.3
	L49,54.2c-1.5-1.4-3.8-1.3-5.2,0.2c-1.3,1.4-1.3,3.6,0,5.1l8,8l-5.4,5.4l-16-16l16-16l8,8L65,59.4c1.6,1.3,3.9,1.1,5.2-0.5
	c1.1-1.4,1.1-3.3,0-4.7l-8-8l5.4-5.4l16,16L67.6,72.8z"/>
<path class="st0" d="M109.2,34.7C97,5.8,63.7-7.7,34.7,4.5S-7.7,50,4.5,78.9s45.5,42.5,74.4,30.3c21.1-8.9,34.7-29.5,34.7-52.3
	C113.6,49.2,112.1,41.7,109.2,34.7z M91.8,91.7c-19.8,18.7-51,17.9-69.7-1.8C4,70.8,4,41,22.1,22C41.8,3.2,73,4.1,91.8,23.8
	C109.8,42.8,109.8,72.7,91.8,91.7z"/>
</svg>
