<svg id="图层_1" data-name="图层 1" xmlns="http://www.w3.org/2000/svg" viewBox="0 0 113.61 113.63"><defs><style>.cls-1{fill:#34bfa3;}</style></defs><title>物联网管理置</title><path class="cls-1" d="M70.25,33A3.71,3.71,0,0,0,65,33l-8,8-8-8a3.69,3.69,0,0,0-5.22,0h0L22.45,54.26a3.61,3.61,0,0,0-1.08,2.61,3.72,3.72,0,0,0,1.08,2.62L43.7,80.69a3.72,3.72,0,0,0,5.23,0l8-8,8,8a3.68,3.68,0,0,0,5.2,0h0L91.47,59.44a3.77,3.77,0,0,0,1.07-2.62,3.67,3.67,0,0,0-1.07-2.56ZM67.58,72.85l-7.74-7.72a3.45,3.45,0,0,0-.26-.28,1.67,1.67,0,0,0-.28-.25L49,54.26a3.7,3.7,0,0,0-5.23,5.23l8,8-5.4,5.41-16-16,16-16,8,8L65,59.44a3.72,3.72,0,0,0,5.28-5.18l-8-8,5.41-5.42,16,16Z" transform="translate(-0.03 -0.01)"/><path class="cls-1" d="M109.18,34.76a56.8,56.8,0,1,0,4.46,22.06A56.8,56.8,0,0,0,109.18,34.76ZM91.82,91.69A49.31,49.31,0,0,1,22.09,22,49.31,49.31,0,0,1,91.82,91.69Z" transform="translate(-0.03 -0.01)"/></svg>