<?xml version="1.0" encoding="utf-8"?>
<!-- Generator: Adobe Illustrator 23.1.0, SVG Export Plug-In . SVG Version: 6.00 Build 0)  -->
<svg version="1.1" id="图层_1" xmlns="http://www.w3.org/2000/svg" xmlns:xlink="http://www.w3.org/1999/xlink" x="0px" y="0px"
	 viewBox="0 0 113.3 113.4" style="enable-background:new 0 0 113.3 113.4;" xml:space="preserve">
<style type="text/css">
	.st0{fill:#FFFFFF;}
</style>
<title>主系统</title>
<path class="st0" d="M61.9,1.6c-3.2-2.1-7.3-2.1-10.4,0L4.3,32.9C-3.6,38.1,0.1,51,9.5,51h3.7l0.1,51.1c0,6.7,4.5,11.3,11.2,11.3
	h41.8c6.2,0,11.3-5.1,11.3-11.3c0,0,0,0,0,0V102l0.1-35.8c0-6.3-5.1-11.4-11.4-11.5c0,0,0,0,0,0H46.9c-6.1,0-11,5.1-11,11.2
	c0,0,0,0,0,0v31c0,2,1.9,3.2,3.8,3.2s3.7-1.2,3.7-3.2V66.2c0-2.4,1.1-3.9,3.4-3.9h19.3c2.4,0,3.7,1.5,3.7,3.9V102
	c0,2.4-1.3,3.9-3.7,3.9H27.6c-2.7,0-6.9-1.8-6.9-4.5V47.9c0-2.6-3.4-4.7-6-4.7H9.5c-1.3,0-2.4-1.1-2.4-2.4c0-0.8,0.4-1.5,1.1-2
	L55.4,7.5C56.2,7,57.2,7,58,7.5l47.2,31.3c0.9,0.5,1.4,1.6,1,2.7c-0.2,1.1-1.1,1.9-2.3,2h-6c-2.6,0-5.4,1.8-5.4,4.4v53.4
	c0.1,2.4-1.8,4.5-4.3,4.5c0,0,0,0,0,0h-5c-2.1-0.1-3.9,1.5-4,3.6s1.5,3.9,3.6,4c0.1,0,0.3,0,0.4,0h5c6.5,0,11.8-5.4,11.8-11.9
	c0,0,0,0,0,0V51h3.8c9.4,0,13-12.9,5.2-18.1L61.9,1.6z"/>
</svg>
