<svg id="图层_1" data-name="图层 1" xmlns="http://www.w3.org/2000/svg" viewBox="0 0 113.35 113.41"><defs><style>.cls-1{fill:#34bfa3;}</style></defs><title>主系统</title><path class="cls-1" d="M61.9,1.57a9.43,9.43,0,0,0-10.41,0L4.25,32.91C-3.56,38.08.1,51,9.46,51h3.66l.12,51.08c0,6.65,4.53,11.33,11.16,11.33H66.21a11.31,11.31,0,0,0,11.27-11.35V102l.12-35.75A11.42,11.42,0,0,0,66.21,54.8H46.9A11.09,11.09,0,0,0,35.9,66V97c0,2,1.87,3.18,3.82,3.18S43.46,99,43.46,97V66.22c0-2.39,1.06-3.86,3.44-3.86H66.21c2.38,0,3.72,1.47,3.73,3.86V102c0,2.38-1.35,3.87-3.73,3.87H27.62c-2.73,0-6.86-1.77-6.86-4.51V47.88c0-2.62-3.41-4.73-6-4.73H9.46a2.37,2.37,0,0,1-1.31-4.34L55.39,7.49a2.38,2.38,0,0,1,2.61,0l47.23,31.33a2.19,2.19,0,0,1,1,2.65,2.43,2.43,0,0,1-2.26,2H98c-2.6,0-5.43,1.81-5.43,4.43v53.44a4.4,4.4,0,0,1-4.27,4.53h-5a3.77,3.77,0,1,0-.39,7.53,2.54,2.54,0,0,0,.39,0h5a11.86,11.86,0,0,0,11.79-11.93V51h3.77c9.36,0,13-12.89,5.21-18.06Z" transform="translate(0 0)"/></svg>