<svg id="图层_1" data-name="图层 1" xmlns="http://www.w3.org/2000/svg" viewBox="0 0 113.39 113.39"><defs><style>.cls-1{fill:#bfcbd9;}</style></defs><title>监测设备</title><path class="cls-1" d="M56.69,9.45A37.8,37.8,0,1,1,18.9,47.24,37.84,37.84,0,0,1,56.69,9.45m0-9.45a47.25,47.25,0,1,0,47.25,47.24A47.24,47.24,0,0,0,56.69,0Z"/><path class="cls-1" d="M102.53,80.54a8.59,8.59,0,0,1,1.41,4.5c0,10.44-21.15,18.9-47.25,18.9S9.45,95.48,9.45,85a8.67,8.67,0,0,1,1.4-4.5,56.67,56.67,0,0,1-5.21-8.66C1,76.83,0,81.8,0,85c0,5.31,2.57,15.25,19.78,22.14,10,4,23.12,6.21,36.91,6.21s26.91-2.21,36.92-6.21c17.21-6.89,19.78-16.83,19.78-22.14,0-3.24-1-8.21-5.65-13.16A55.88,55.88,0,0,1,102.53,80.54Z"/><path class="cls-1" d="M56.69,18.9A28.35,28.35,0,1,0,85,47.24,28.34,28.34,0,0,0,56.69,18.9Zm-11.81,26a9.45,9.45,0,1,1,9.45-9.45A9.45,9.45,0,0,1,44.88,44.88Z"/></svg>