<svg id="图层_1" data-name="图层 1" xmlns="http://www.w3.org/2000/svg" viewBox="0 0 114.52 114.52"><defs><style>.cls-1{fill:#bfcbd9;stroke:#bfcbd9;stroke-miterlimit:10;}</style></defs><title>新闻咨询</title><path class="cls-1" d="M56.7.11A56.83,56.83,0,0,0-.06,56.88a58.6,58.6,0,0,0,.88,9.7s.05,0,.05,0a1.87,1.87,0,0,0,3.67-.51.47.47,0,0,0,0-.17l0,0a53.1,53.1,0,1,1,6.41,17.54s0,0,0,0l-.08-.13a1.87,1.87,0,1,0-3.16,2h0A56.72,56.72,0,1,0,56.7.11Z" transform="translate(0.56 0.39)"/><path class="cls-1" d="M25,51.05V67.24a1.45,1.45,0,0,1-1.61,1.47c-1.09,0-1.61-.49-1.61-1.47V47.08c-.1-1.27.38-2,1.46-2.06.79-.09,1.57.5,2.35,1.76L39.09,62.84h.14V46.79A1.57,1.57,0,0,1,40.85,45a1.69,1.69,0,0,1,1.61,1.75V67c0,1.17-.5,1.75-1.47,1.75s-1.66-.38-2.35-1.47L25.13,51.05Zm25.11,9.1v5.48h8.07a1.64,1.64,0,0,1,1.61,1.61,1.45,1.45,0,0,1-1.61,1.47H48.63c-1.28,0-1.87-.59-1.76-1.75V47.08c-.09-1.18.5-1.75,1.76-1.75h9.54a1.56,1.56,0,0,1,1.61,1.46c-.1,1.09-.64,1.62-1.61,1.62H50.1v8.66h7.33a1.62,1.62,0,0,1,1.62,1.61,1.46,1.46,0,0,1-1.62,1.47ZM69,64.6,75.2,46.35A1.61,1.61,0,0,1,77,45a1.65,1.65,0,0,1,1.61,1.33L84.74,64.6h.15l3.52-18A1.59,1.59,0,0,1,90.17,45a1.51,1.51,0,0,1,1.47,1.47,12.27,12.27,0,0,1-.15,1.76L87.39,66.8A2.09,2.09,0,0,1,85,68.71,2.34,2.34,0,0,1,82.4,66.8L77,50.45h-.14L71.38,66.8a2.35,2.35,0,0,1-2.65,1.91,2.08,2.08,0,0,1-2.34-1.91l-4-18.55a.6.6,0,0,1-.15-.45,5.29,5.29,0,0,1-.14-1.32c0-.88.54-1.37,1.61-1.47a1.69,1.69,0,0,1,1.76,1.61L69,64.6Z" transform="translate(0.56 0.39)"/></svg>