<svg id="图层_1" data-name="图层 1" xmlns="http://www.w3.org/2000/svg" viewBox="0 0 113.39 113.39"><defs><style>.cls-1{fill:#bfcbd9;}</style></defs><title>工单总览</title><path class="cls-1" d="M36.5,103.37a5,5,0,0,1,0,10H4.83a4.92,4.92,0,0,1-4.83-5V5A4.91,4.91,0,0,1,4.83,0h91a4.93,4.93,0,0,1,4.84,5V31.44a4.84,4.84,0,1,1-9.67,0V10H9.66v93.36ZM54.36,77.79c0,14.11,11.07,25.58,24.69,25.58s24.67-11.47,24.67-25.58S92.65,52.2,79.05,52.2,54.36,63.68,54.36,77.79Zm51.22,22.32,4.55,4.73a5.13,5.13,0,0,1,0,7.08,4.72,4.72,0,0,1-3.41,1.46,4.77,4.77,0,0,1-3.42-1.46L98.57,107a33.24,33.24,0,0,1-19.52,6.37c-18.94,0-34.35-16-34.35-35.59s15.41-35.6,34.35-35.6,34.34,16,34.34,35.6A36,36,0,0,1,105.58,100.11ZM24.88,23h49.3a5,5,0,0,1,0,10H24.88a5,5,0,0,1,0-10ZM36.5,52.2a5,5,0,0,1,0,10H24.88a5,5,0,0,1,0-10ZM33.29,91.46H24.88a5,5,0,0,1,0-10h8.41a5,5,0,0,1,0,10Z"/></svg>