<svg id="图层_1" data-name="图层 1" xmlns="http://www.w3.org/2000/svg" viewBox="0 0 113.39 113.39"><defs><style>.cls-1{fill:#34bfa3;}</style></defs><title>种植管理</title><path class="cls-1" d="M106.64,12.48H87.18V4.38c-.12-2.6-2.06-4.61-4.34-4.48a4.45,4.45,0,0,0-3.93,4.48v8.1h-18V4.38A4.46,4.46,0,0,0,56.77-.34a4.45,4.45,0,0,0-4.14,4.72h0v8.1H34.75V4.38A4.4,4.4,0,0,0,30.4-.11a4.47,4.47,0,0,0-3.94,4.49v8.1H6.84C3.24,12.32.2,15.5,0,19.6v86.32c.16,4.1,3.2,7.28,6.8,7.12h99.79c3.6.16,6.63-3,6.8-7.12V19.6C113.27,15.5,110.23,12.32,106.64,12.48ZM7.54,106.16V21.1H26.45v8.07a4.52,4.52,0,0,0,4,4.91,4.4,4.4,0,0,0,4.31-4.45V21.1H52.67v8.07a4.45,4.45,0,0,0,4.14,4.72A4.46,4.46,0,0,0,61,29.17V21.1H79v8.07a4.18,4.18,0,1,0,8.28,0V21.1h18.71v85.06Z" transform="translate(-0.04 0.34)"/><path class="cls-1" d="M63.6,51.58a3.06,3.06,0,0,0,3.08,3H91.42a3,3,0,0,0,0-6.08H66.66a3,3,0,0,0-3.06,2.94h0Zm3.07,18H85.22a3,3,0,0,0,.43-6.06h-19a3,3,0,0,0-.41,6,3.09,3.09,0,0,0,.43,0Zm24.74,8.94H66.67a3,3,0,1,0-.12,6H91.41a3,3,0,0,0,0-6.07Z" transform="translate(-0.04 0.34)"/><path class="cls-1" d="M46.15,62.53c-3,1.86-5,4.61-7,7.66a12.22,12.22,0,0,1-.74-7.59c.5-2.26,2.2-3.5,4.37-4.14a70.29,70.29,0,0,1,8-1.72,25,25,0,0,0,5.63-1.53c.65.61.14,1.12,0,1.6-1.18,3.82-2.06,7.72-3.67,11.41-1.94,4.37-4.55,5.62-9.13,4.57A3.13,3.13,0,0,0,40,75.3a2,2,0,0,0,0,.49.71.71,0,0,0,.48.81c1.64.61,2.6,2.4,4.51,2.6a1.32,1.32,0,0,1,1.24,1.24c0,.68-.6.91-1.08,1.14a11.08,11.08,0,0,1-8.22.36,24.43,24.43,0,0,1-4.42-2c-1.65-.87-1.26-1.61-.18-2.64s2.09-.65,3.33-.8a15.55,15.55,0,0,0-2.1-5.82c-.58-1-1.48-.94-2.4-.88A19.32,19.32,0,0,1,25,69.44,6.92,6.92,0,0,1,19.8,65c-1.29-3.48-1.64-7.28-3.62-10.52-.51-.85.2-.95.78-.95,3.94-.07,7.88-.17,11.72.93,4.81,1.37,6.87,4.76,6.3,10.82-2.24-2.59-4.17-5.18-7.2-6.42a4.53,4.53,0,0,0-3.47-1.08l2.9,1.64c5.48,4.21,8.45,10,10.51,17.08,2-5.57,5.26-9.6,8.81-13.47a3.65,3.65,0,0,0,1.64-1.29l.68-.58a.45.45,0,0,0,.3-.16,6.19,6.19,0,0,0,2.13-1.63l.16-.08v-.11l-.17.21a3.42,3.42,0,0,0-2.43,1.18.35.35,0,0,0-.23.23l-.76.47A3.77,3.77,0,0,0,46.15,62.53ZM23.84,57.24l-.33.16a1,1,0,0,0,.34.13,1,1,0,0,0,.33-.15Z" transform="translate(-0.04 0.34)"/></svg>