<svg id="图层_1" data-name="图层 1" xmlns="http://www.w3.org/2000/svg" viewBox="0 0 113.39 99.52"><defs><style>.cls-1{fill:#bfcbd9;}</style></defs><title>种植管理</title><path class="cls-1" d="M106.6,18.19H87.14V11.08a4.14,4.14,0,0,0-8.27,0v7.11h-18V11.08a4.14,4.14,0,1,0-8.28,0h0v7.11H34.71V11.08a4.15,4.15,0,0,0-8.29,0v7.11H6.8A6.55,6.55,0,0,0,0,24.44V100.2a6.55,6.55,0,0,0,6.8,6.25h99.79a6.55,6.55,0,0,0,6.8-6.25V24.44A6.54,6.54,0,0,0,106.6,18.19ZM7.5,100.41V25.75H26.41v7.09a4.15,4.15,0,0,0,8.29.4V25.75H52.63v7.09a4.14,4.14,0,0,0,8.28,0V25.75h18v7.09a4.14,4.14,0,0,0,8.28,0V25.75H105.9v74.66Z" transform="translate(0 -6.93)"/><path class="cls-1" d="M63.62,52.05a3.06,3.06,0,0,0,3.08,3H91.44a3,3,0,1,0,0-6.08H66.68a3,3,0,0,0-3.06,2.94v.14Zm3.07,18H85.24a3,3,0,0,0,.43-6.06h-19A3,3,0,1,0,66.26,70,3.08,3.08,0,0,0,66.69,70Zm24.74,8.94H66.69A3,3,0,0,0,66.57,85H91.43a3,3,0,0,0,0-6.07Z" transform="translate(0 -6.93)"/><path class="cls-1" d="M46.17,63c-3,1.86-5,4.61-7,7.66a12.22,12.22,0,0,1-.74-7.59c.5-2.26,2.2-3.5,4.37-4.14a70.29,70.29,0,0,1,8-1.72,24.45,24.45,0,0,0,5.63-1.53c.65.61.14,1.12,0,1.6C55.25,61.1,54.37,65,52.76,68.69c-1.94,4.37-4.55,5.62-9.13,4.57A3.13,3.13,0,0,0,40,75.77a2.63,2.63,0,0,0,0,.49.71.71,0,0,0,.48.81c1.64.61,2.6,2.4,4.51,2.6a1.32,1.32,0,0,1,1.24,1.24c0,.68-.6.91-1.08,1.14a11.08,11.08,0,0,1-8.22.36,24.43,24.43,0,0,1-4.42-2c-1.65-.87-1.26-1.61-.18-2.64s2.09-.65,3.33-.8a15.49,15.49,0,0,0-2.1-5.82c-.58-1-1.48-.94-2.4-.88A19.34,19.34,0,0,1,25,69.91a6.92,6.92,0,0,1-5.18-4.48c-1.29-3.48-1.64-7.28-3.62-10.52-.51-.85.2-.95.78-.95,3.94-.07,7.88-.17,11.72.93,4.81,1.37,6.87,4.76,6.3,10.82-2.24-2.59-4.17-5.18-7.2-6.42a4.54,4.54,0,0,0-3.47-1.08l2.9,1.64c5.48,4.21,8.45,10,10.51,17.08,2-5.57,5.26-9.6,8.81-13.47a3.65,3.65,0,0,0,1.64-1.29l.68-.58a.45.45,0,0,0,.3-.16,6.19,6.19,0,0,0,2.13-1.63l.16-.08v-.11l-.17.21A3.44,3.44,0,0,0,48.86,61a.37.37,0,0,0-.23.23l-.76.47A3.77,3.77,0,0,0,46.17,63ZM23.86,57.71l-.33.16a1,1,0,0,0,.34.13,1,1,0,0,0,.33-.15Z" transform="translate(0 -6.93)"/></svg>