<svg id="图层_1" data-name="图层 1" xmlns="http://www.w3.org/2000/svg" viewBox="0 0 113.39 112.64"><defs><style>.cls-1{fill:#bfcbd9;}</style></defs><title>检测管理</title><path class="cls-1" d="M110.49,95.61,93.82,78.81a51.61,51.61,0,0,0-7-63.78,50.6,50.6,0,0,0-72,0,51.52,51.52,0,0,0,0,72.48,50.6,50.6,0,0,0,65.18,5.76l16.33,16.46a9.92,9.92,0,0,0,14.08,0,10,10,0,0,0,0-14.1ZM4.9,51.27a46.23,46.23,0,0,1,46-46.39c25.37,0,46,20.8,46,46.39a46.24,46.24,0,0,1-46,46.39C25.52,97.66,4.9,76.84,4.9,51.27Zm102.13,55a5,5,0,0,1-7.16,0L85.05,91.35l7.16-7.22L107,99.06a5.13,5.13,0,0,1,0,7.22l1.72,1.73L107,106.28Z"/><path class="cls-1" d="M47.19,66.8a6.56,6.56,0,0,0,12.16-3.46A6.61,6.61,0,0,0,54.49,57L52.62,42a6.17,6.17,0,0,0,3.14-5.24l10.82-4A6.91,6.91,0,1,0,66,29.57l-11,4a6.15,6.15,0,1,0-5.53,9.2l1.76,14.1a6.6,6.6,0,0,0-5,6.41c0,.12,0,.23,0,.36L34.5,67.89a6.52,6.52,0,1,0,1.74,4.44,6.55,6.55,0,0,0-.18-1.54ZM72.84,26.3A3.68,3.68,0,1,1,69.21,30,3.65,3.65,0,0,1,72.84,26.3ZM46.73,36.65a2.9,2.9,0,1,1,2.9,2.93A2.92,2.92,0,0,1,46.73,36.65ZM52.78,60a3.35,3.35,0,1,1-3.32,3.35A3.34,3.34,0,0,1,52.78,60Zm-23,15.6A3.26,3.26,0,1,1,33,72.33,3.24,3.24,0,0,1,29.77,75.59Z"/><path class="cls-1" d="M22.12,50.64A28.3,28.3,0,0,1,50.26,22.25a27.76,27.76,0,0,1,12.64,3l3.6-3.6a32.58,32.58,0,0,0-16.24-4.31,33.27,33.27,0,0,0-28.85,49.4L25,63.16a28.31,28.31,0,0,1-2.9-12.52Zm54.46-10A28.4,28.4,0,0,1,50.25,79a28,28,0,0,1-10.14-1.9L36.4,80.81a32.69,32.69,0,0,0,13.86,3.07,33.31,33.31,0,0,0,30.08-47Z"/></svg>