<svg id="图层_1" data-name="图层 1" xmlns="http://www.w3.org/2000/svg" viewBox="0 0 113.39 113.39"><defs><style>.cls-1{fill:#bfcbd9;}</style></defs><title>追溯打码</title><path class="cls-1" d="M103.34,28.78S63,0,56.69,0,10.1,28.73,10.1,28.73C4.51,32.63,0,41.16,0,47.76v53.7c0,6.58,5.62,11.92,12.57,11.93h88.25c7,0,12.58-5.37,12.57-12V47.75C113.39,41.14,108.89,32.66,103.34,28.78ZM85.11,68.48H79.94a23.81,23.81,0,0,1-18.5,18.57v5.19h0a4.75,4.75,0,1,1-9.49,0V87.05A23.81,23.81,0,0,1,33.44,68.48H28.27a4.76,4.76,0,0,1,0-9.52h5.17A23.79,23.79,0,0,1,52,40.39V35.2h0a4.75,4.75,0,1,1,9.49,0v5.19A23.79,23.79,0,0,1,79.94,59h5.17a4.76,4.76,0,0,1,0,9.52Z" transform="translate(0)"/><path class="cls-1" d="M42.46,63.72A14.24,14.24,0,1,1,56.68,78,14.26,14.26,0,0,1,42.46,63.72Z" transform="translate(0)"/></svg>