<svg id="图层_1" data-name="图层 1" xmlns="http://www.w3.org/2000/svg" viewBox="0 0 113.39 122.01"><defs><style>.cls-1{fill:#bfcbd9;}</style></defs><title>种植计划管理</title><path class="cls-1" d="M105.37,131.87H8a8.15,8.15,0,0,1-8-8V26.5a8.15,8.15,0,0,1,8-8H25.27a4.31,4.31,0,0,1,0,8.62H8.63v96.14h96.13V27.11h-16a4.31,4.31,0,1,1,0-8.62h16.63a8.16,8.16,0,0,1,8,8v96.75a8.3,8.3,0,0,1-8,8.62Z" transform="translate(0 -9.86)"/><path class="cls-1" d="M61.31,27.11H49a4.31,4.31,0,0,1,0-8.62H61.31a4.31,4.31,0,1,1,0,8.62Zm-24.64,8a5.52,5.52,0,0,1-5.55-5.54V16a5.55,5.55,0,0,1,11.09,0V29C42.21,32,39.75,35.12,36.67,35.12ZM79.19,16V29a5.55,5.55,0,1,1-11.1,0V16c0-3.08,2.47-6.16,5.55-6.16S79.19,12.94,79.19,16ZM92.13,59.16h-24a4.32,4.32,0,0,1,0-8.63h24a4.32,4.32,0,0,1,0,8.63Zm0,24.65H76.72a4.32,4.32,0,0,1,0-8.63H92.13a4.32,4.32,0,0,1,0,8.63Zm0,24.65h-37a4.32,4.32,0,0,1,0-8.63h37a4.32,4.32,0,0,1,0,8.63ZM50.22,43.14c-5.54-2.47-11.71.61-14.17,6.16L17,96.75V98.6L18.79,114c0,1.23.62,1.85,1.85,2.47.62,0,2.47,0,3.08-.62L36.05,106l1.23-1.23L55.77,57.31A10.6,10.6,0,0,0,50.22,43.14ZM41.6,51.76a5.41,5.41,0,0,1,6.16-3.08c2.46,1.23,3.08,3.7,2.46,6.16l-1.85,5.55-8.62-3.08ZM31.12,101.68l-6.78,5.54L23.11,98,37.9,62.24l8.63,3.7Z" transform="translate(0 -9.86)"/></svg>