<svg id="图层_1" data-name="图层 1" xmlns="http://www.w3.org/2000/svg" viewBox="0 0 113.39 113.39"><defs><style>.cls-1{fill:#34bfa3;}</style></defs><title>溯源管理</title><path class="cls-1" d="M113.19,56.5a56.43,56.43,0,0,1-12.36,35.33l-4.54-4.54a50.34,50.34,0,0,0,0-61.58l4.54-4.54A56.43,56.43,0,0,1,113.19,56.5Zm-92-44.33,4.54,4.54a50.34,50.34,0,0,1,61.58,0l2.3-2.3,2.24-2.24A56.67,56.67,0,0,0,21.17,12.17ZM16.71,25.71l-4.54-4.54a56.67,56.67,0,0,0,0,70.66l4.54-4.54A50.34,50.34,0,0,1,16.71,25.71Zm59.36,77.17a50.29,50.29,0,0,1-50.35-6.56l-4.54,4.51a56.67,56.67,0,0,0,70.66,0L87.3,96.29A50.06,50.06,0,0,1,76.07,102.88ZM56.5,85.82A29.3,29.3,0,1,1,85.8,56.5h0A29.32,29.32,0,0,1,56.5,85.8Zm-16.21-13a22.92,22.92,0,1,0-6.72-16.26A22.93,22.93,0,0,0,40.29,72.78Z" transform="translate(0.19 0.19)"/></svg>