<?xml version="1.0" encoding="utf-8"?>
<!-- Generator: Adobe Illustrator 23.1.0, SVG Export Plug-In . SVG Version: 6.00 Build 0)  -->
<svg version="1.1" id="图层_1" xmlns="http://www.w3.org/2000/svg" xmlns:xlink="http://www.w3.org/1999/xlink" x="0px" y="0px"
	 viewBox="0 0 113.4 113.4" style="enable-background:new 0 0 113.4 113.4;" xml:space="preserve">
<style type="text/css">
	.st0{fill:#FFFFFF;}
</style>
<title>溯源管理</title>
<path class="st0" d="M113.4,56.7C113.4,69.5,109,82,101,92l-4.5-4.5c14-18.1,14-43.4,0-61.6l4.5-4.5C109,31.4,113.4,43.9,113.4,56.7
	z M21.4,12.4l4.5,4.5c18.1-14,43.4-14,61.6,0l2.3-2.3l2.2-2.2C71.4-4.1,42-4.1,21.4,12.4L21.4,12.4z M16.9,25.9l-4.5-4.5
	C-4.1,42-4.1,71.3,12.4,92l4.5-4.5C2.9,69.3,2.9,44,16.9,25.9z M76.3,103.1c-16.7,7.1-36,4.6-50.3-6.6l-4.5,4.5
	c20.7,16.5,50,16.5,70.7,0l-4.5-4.5C84,99.2,80.3,101.4,76.3,103.1z M56.7,86c-16.2,0-29.3-13.1-29.3-29.3s13.1-29.3,29.3-29.3
	C72.9,27.4,86,40.5,86,56.7l0,0C86,72.9,72.9,86,56.7,86L56.7,86z M40.5,73c9,8.9,23.5,8.9,32.4,0s8.9-23.5,0-32.4s-23.5-8.9-32.4,0
	c-4.3,4.3-6.7,10.1-6.7,16.2C33.8,62.8,36.2,68.7,40.5,73L40.5,73z"/>
</svg>
