<svg id="图层_1" data-name="图层 1" xmlns="http://www.w3.org/2000/svg" viewBox="0 0 113 113"><defs><style>.cls-1{fill:#bfcbd9;}</style></defs><title>溯源管理</title><path class="cls-1" d="M113,56.5a56.21,56.21,0,0,1-12.32,35.21l-4.52-4.52A50,50,0,0,0,106.64,56.5,50,50,0,0,0,96.16,25.81l4.52-4.52A56.21,56.21,0,0,1,113,56.5ZM21.29,12.32l4.52,4.52A50,50,0,0,1,56.5,6.36,50,50,0,0,1,87.19,16.84l2.29-2.29,2.23-2.23a56.47,56.47,0,0,0-70.42,0ZM16.84,25.81l-4.52-4.52a56.47,56.47,0,0,0,0,70.42l4.52-4.52A50,50,0,0,1,6.36,56.5,50,50,0,0,1,16.84,25.81ZM76,102.72a50.39,50.39,0,0,1-39,0,50.39,50.39,0,0,1-11.18-6.54l-4.52,4.5a56.47,56.47,0,0,0,70.42,0l-4.52-4.52A50.08,50.08,0,0,1,76,102.72ZM56.5,85.7A29.2,29.2,0,1,1,85.7,56.5,29.21,29.21,0,0,1,56.5,85.7Zm-16.16-13A22.86,22.86,0,1,0,33.65,56.5,22.67,22.67,0,0,0,40.34,72.66Z" transform="translate(0)"/></svg>