<svg id="图层_1" data-name="图层 1" xmlns="http://www.w3.org/2000/svg" viewBox="0 0 113.39 94.78"><defs><style>.cls-1{fill:#bfcbd9;}</style></defs><title>视频云配置1</title><path class="cls-1" d="M96.41,102.28H17a17,17,0,0,1-17-17V24.46a17,17,0,0,1,17-17H42.59c8,0,14.21,7.54,17.93,12.05.49.59.91,1.11,1.27,1.51a8,8,0,0,0,3.62,2l31,.31a17,17,0,0,1,16.94,17V86.11c0,3.78,0,8.49-3.5,12-2.81,2.81-7.09,4.13-13.47,4.13ZM17,18.24a6.23,6.23,0,0,0-6.22,6.22V85.31A6.23,6.23,0,0,0,17,91.53H96.41c4.83,0,5.84-1,5.85-1,.39-.39.38-3.12.37-4.43V40.29a6.22,6.22,0,0,0-6.22-6.21h0l-32.53-.4A19.06,19.06,0,0,1,53.76,28.2c-.43-.48-.94-1.1-1.53-1.81-1.84-2.22-6.73-8.15-9.63-8.15Z" transform="translate(0 -7.5)"/><path class="cls-1" d="M46.6,84.49a5.37,5.37,0,0,1-5.38-5.37V44.57A5.38,5.38,0,0,1,49.39,40L77.82,57.25a5.38,5.38,0,0,1,0,9.19L49.39,83.71A5.36,5.36,0,0,1,46.6,84.49ZM52,54.13V69.56l12.7-7.72Z" transform="translate(0 -7.5)"/></svg>