<svg id="图层_1" data-name="图层 1" xmlns="http://www.w3.org/2000/svg" viewBox="0 0 114.39 114.39"><defs><style>.cls-1{fill:#bfcbd9;stroke:#bfcbd9;stroke-miterlimit:10;}</style></defs><title>VIP定制</title><path class="cls-1" d="M92.18,56.63l17.63-17.79c4.77-4.81,4.77-12.51,0-16.83L91.23,3.25c-4.29-4.33-12.39-4.33-16.68,0L56.92,21,39.29,3.25C35-1.08,26.9-1.08,22.61,3.25L4,22C-.74,26.82-.74,34.51,4,38.84L21.66,56.63,14,63.85a10,10,0,0,0-2.86,4.81L.69,98a11.69,11.69,0,0,0,1.43,10.58,12.42,12.42,0,0,0,9.53,4.81,10.41,10.41,0,0,0,3.81-.48l29.07-10.58a10,10,0,0,0,4.77-2.89l7.14-7.21L74.07,110a11.43,11.43,0,0,0,8.58,3.37A13.59,13.59,0,0,0,91.23,110l18.58-18.76c4.77-4.81,4.77-12.5,0-16.83ZM83.13,9c.48,0,1.43.48,1.9.48l18.59,18.76a2.35,2.35,0,0,1,0,3.37L97,38.36,75,16.23,81.7,9.5A2.09,2.09,0,0,1,83.13,9Zm-61,34.63L30.71,35a3.8,3.8,0,0,0,0-5.29,3.72,3.72,0,0,0-5.24,0l-8.58,8.66L10.7,32.11a2.33,2.33,0,0,1,0-3.37L29.28,10c.48-.48.95-.48,1.91-.48s1.43.48,1.9.48l17.16,17.8L28.33,49.9Zm21,49.54a1.67,1.67,0,0,1-1,.48L13.08,104.25a1.73,1.73,0,0,1-2.38-1c-.48-.48-.48-1-.48-1.93L20.7,72c0-.49.48-.49.48-1L31.66,60.48l28.6-28.85L69.79,22,91.71,44.13l-9.53,9.62L53.58,82.61,43.1,93.19Zm60-8.66L84.56,103.29a2.3,2.3,0,0,1-3.34,0L75,97l8.58-8.66a3.82,3.82,0,0,0,0-5.29,3.71,3.71,0,0,0-5.25,0l-8.57,8.65-6.2-6.25L85.51,63.37l17.63,17.79a2.33,2.33,0,0,1,0,3.37Z" transform="translate(0.5 0.5)"/></svg>