<svg id="图层_1" data-name="图层 1" xmlns="http://www.w3.org/2000/svg" viewBox="0 0 113.39 122.52"><defs><style>.cls-1{fill:#bfcbd9;}</style></defs><title>工单管理</title><path class="cls-1" d="M105.78,106.25v-6.09l7.61-4.56-3-6.85L102,91l-4.56-4.56,2.28-8.37-6.85-3-4.57,7.61H82.19l-4.57-7.61-6.85,3,1.52,8.37L67.73,91l-8.37-2.28-3,6.85,7.61,4.56v6.09l-7.61,4.57,3,6.85,8.37-1.53,4.56,4.57L70,129.08l6.85,3,4.56-7.6h6.09l4.57,7.6,6.85-3-2.29-8.37,4.57-4.57,8.37,2.29,3-6.85Zm-8.37,2.28a13.1,13.1,0,0,1-17.51,6.85,14.13,14.13,0,0,1-7.61-17.5A13.11,13.11,0,0,1,89.8,91C97.41,93.32,100.45,101.69,97.41,108.53Z" transform="translate(0 -9.61)"/><path class="cls-1" d="M19,130.6c-6.08,0-19-3.8-19-16.74V32.44C0,17.22,9.89,9.61,19,9.61H85.23c11.41,0,19,7.61,19,19.78v27.4c0,2.28-1.52,5.32-4.56,5.32-3.81-.76-5.33-2.28-5.33-5.32V31.68c0-8.38-7.61-11.42-10.65-11.42H19c-3.8,0-9.89,4.57-9.89,14.46v76.1c0,11.41,7.61,11.41,10.66,11.41H42.61c3-.76,4.57,2.29,4.57,4.57s-1.52,4.56-5.33,4.56H19Z" transform="translate(0 -9.61)"/><path class="cls-1" d="M25.87,30.91H77.62a3.6,3.6,0,0,1,3.8,3.81,3.59,3.59,0,0,1-3.8,3.8H25.87a4.07,4.07,0,0,1-3.8-3.8A3.55,3.55,0,0,1,25.87,30.91Zm0,21.31H77.62a3.81,3.81,0,0,1,0,7.61H25.87a3.59,3.59,0,0,1-3.8-3.8A3.55,3.55,0,0,1,25.87,52.22Zm0,22.83H47.94a3.6,3.6,0,0,1,3.81,3.81,4.08,4.08,0,0,1-3.81,3.8H25.87a3.59,3.59,0,0,1-3.8-3.8C22.07,76.57,22.83,75.05,25.87,75.05Z" transform="translate(0 -9.61)"/></svg>